<svg width="38" height="24" viewBox="0 0 38 24" fill="none" xmlns="http://www.w3.org/2000/svg">
<g clip-path="url(#clip0_16929_249997)">
<path d="M35 1H3C1.89543 1 1 1.89543 1 3V21C1 22.1046 1.89543 23 3 23H35C36.1046 23 37 22.1046 37 21V3C37 1.89543 36.1046 1 35 1Z" fill="url(#paint0_linear_16929_249997)"/>
<path d="M34.6582 20.6497C34.4341 20.8921 34.144 20.9998 33.8276 20.9998C33.5112 20.9998 33.2212 20.8786 32.9971 20.6497C32.773 20.4209 32.6543 20.1247 32.6543 19.8016C32.6543 19.4785 32.773 19.1824 32.9971 18.9535C33.2212 18.7247 33.498 18.6035 33.8276 18.6035C34.1572 18.6035 34.4341 18.7247 34.6582 18.9535C34.8823 19.1824 35.001 19.4651 35.001 19.8016C35.001 20.1382 34.8823 20.4209 34.6582 20.6497ZM33.1157 19.0747C32.918 19.2766 32.8257 19.5189 32.8257 19.8016C32.8257 20.0843 32.918 20.3401 33.1157 20.542C33.3135 20.744 33.5508 20.8517 33.8276 20.8517C34.1045 20.8517 34.3418 20.744 34.5396 20.542C34.7373 20.3401 34.8296 20.0978 34.8296 19.8016C34.8296 19.5055 34.7373 19.2766 34.5396 19.0747C34.3418 18.8728 34.1045 18.7651 33.8276 18.7651C33.5508 18.7651 33.3135 18.8728 33.1157 19.0747ZM33.8013 19.142C33.9595 19.142 34.0781 19.1555 34.1572 19.1958C34.2891 19.2497 34.355 19.3708 34.355 19.5324C34.355 19.6536 34.3154 19.7343 34.2232 19.7882C34.1836 19.8151 34.1177 19.842 34.0386 19.8555C34.1441 19.8689 34.21 19.9093 34.2627 19.9901C34.3154 20.0574 34.3286 20.1247 34.3286 20.192V20.2863C34.3286 20.2863 34.3286 20.3536 34.3286 20.3805C34.3286 20.4209 34.3286 20.4344 34.3286 20.4478L34.1177 20.4613C34.1177 20.4613 34.1177 20.4613 34.1177 20.4478V20.4074V20.2997C34.1177 20.1516 34.0781 20.044 33.999 20.0036C33.9463 19.9766 33.8672 19.9632 33.7485 19.9632H33.564V20.4882H33.3398V19.1689H33.7881L33.8013 19.142ZM34.0518 19.3439C34.0518 19.3439 33.9067 19.2901 33.7749 19.2901H33.5772V19.7747H33.7881C33.8804 19.7747 33.9595 19.7747 33.999 19.7478C34.0913 19.7074 34.1309 19.6401 34.1309 19.5459C34.1309 19.4516 34.1045 19.3843 34.0386 19.3574L34.0518 19.3439Z" fill="white"/>
<path fill-rule="evenodd" clip-rule="evenodd" d="M3 1C1.89543 1 1 1.89543 1 3V21C1 22.1046 1.89543 23 3 23H35C36.1046 23 37 22.1046 37 21V3C37 1.89543 36.1046 1 35 1H3ZM0 3C0 1.34315 1.34315 0 3 0H35C36.6569 0 38 1.34315 38 3V21C38 22.6569 36.6569 24 35 24H3C1.34315 24 0 22.6569 0 21V3Z" fill="black" fill-opacity="0.07"/>
<path d="M29.0065 9.57553C29.0065 9.2711 28.9469 8.97275 28.8336 8.6805C28.7203 8.40042 28.5593 8.15687 28.3446 7.94377C28.1121 7.70631 27.8497 7.54192 27.5695 7.45059C27.2892 7.35926 26.9076 7.31055 26.4187 7.31055H19.9014V11.8527H26.4187C26.9016 11.8527 27.2892 11.804 27.5695 11.7126C27.8497 11.6152 28.1121 11.4508 28.3446 11.2195C28.5593 11.0064 28.7203 10.7567 28.8336 10.4827C28.9469 10.1905 29.0065 9.89214 29.0065 9.58771" fill="white"/>
<path d="M29.0065 15.1283C29.0065 14.8238 28.9469 14.5255 28.8336 14.2332C28.7203 13.9532 28.5593 13.7096 28.3446 13.4965C28.1121 13.259 27.8497 13.0947 27.5695 13.0033C27.2892 12.912 26.9076 12.8633 26.4187 12.8633H19.9014V17.4054H26.4187C26.9016 17.4054 27.2892 17.3567 27.5695 17.2654C27.8497 17.168 28.1121 17.0036 28.3446 16.7722C28.5593 16.5591 28.7203 16.3095 28.8336 16.0355C28.9469 15.7432 29.0065 15.4449 29.0065 15.1404" fill="white"/>
<path d="M18.9953 11.8466C18.7866 8.89357 16.7235 7 13.5096 7C10.1227 7 8 9.11277 8 12.3458C8 15.5789 10.2062 17.6978 13.5096 17.6978C16.8129 17.6978 18.7866 15.7981 18.9953 12.8512H13.438V11.8405H18.9953V11.8466Z" fill="white"/>
</g>
<defs>
<linearGradient id="paint0_linear_16929_249997" x1="34.5" y1="19.5" x2="1" y2="3.49999" gradientUnits="userSpaceOnUse">
<stop offset="0.0546829" stop-color="#CB1417"/>
<stop offset="0.345254" stop-color="#E08981"/>
<stop offset="0.407425" stop-color="#D3B2BA"/>
<stop offset="0.474667" stop-color="#CDC9D4"/>
<stop offset="0.534989" stop-color="#ABB9D3"/>
<stop offset="0.68099" stop-color="#1D7BBF"/>
<stop offset="1" stop-color="#28337A"/>
</linearGradient>
<clipPath id="clip0_16929_249997">
<rect width="38" height="24" fill="white"/>
</clipPath>
</defs>
</svg>
