<svg width="40" height="24" viewBox="0 0 40 24" fill="none" xmlns="http://www.w3.org/2000/svg">
<rect x="0.166992" width="39" height="24" rx="3.04179" fill="black"/>
<path d="M16.4121 17.8701C16.5495 17.8701 16.6611 17.8813 16.7451 17.9023C16.8295 17.923 16.9022 17.9446 16.9648 17.9658C17.0274 17.9862 17.0834 18.0077 17.1338 18.0293C17.184 18.05 17.2434 18.0605 17.3125 18.0605C17.3808 18.0604 17.4308 18.0367 17.4619 17.9883H17.5654V19.0215H17.4619C17.4182 18.8882 17.3685 18.7594 17.3125 18.6357C17.2562 18.5116 17.1882 18.4022 17.1104 18.3047C17.032 18.2091 16.9353 18.133 16.8203 18.0791C16.7045 18.0251 16.5688 17.9971 16.4121 17.9971C16.1126 17.9971 15.8795 18.0628 15.7139 18.1924C15.5486 18.322 15.4659 18.4953 15.4658 18.7129C15.4658 18.9062 15.5362 19.0523 15.6768 19.1523C15.8177 19.251 16.025 19.3443 16.2998 19.4287L16.9844 19.6455C17.2773 19.7421 17.5176 19.8747 17.7051 20.0439C17.8923 20.2133 17.9862 20.4358 17.9863 20.7139C17.9863 20.8767 17.9536 21.0371 17.8877 21.1934C17.8224 21.3511 17.726 21.4888 17.5977 21.6064C17.4693 21.7236 17.3133 21.8197 17.1289 21.8916C16.9452 21.9646 16.734 22 16.4971 22C16.3594 22 16.2324 21.9866 16.1172 21.959C16.0017 21.932 15.8951 21.9039 15.7988 21.874C15.7014 21.8436 15.6123 21.8148 15.5312 21.7881C15.4502 21.7603 15.3757 21.7471 15.3066 21.7471C15.2378 21.7471 15.1878 21.7602 15.1562 21.7881C15.1251 21.8148 15.1009 21.8437 15.082 21.874H14.9785V20.6055H15.082C15.1258 20.7499 15.1814 20.8971 15.25 21.0449C15.3188 21.1927 15.4119 21.3291 15.5273 21.4521C15.6428 21.5759 15.7844 21.678 15.9531 21.7559C16.1217 21.8346 16.3248 21.874 16.5625 21.874C16.762 21.874 16.9397 21.8142 17.0957 21.6963C17.2523 21.5787 17.331 21.3871 17.3311 21.1221C17.3311 20.8928 17.2699 20.7308 17.1484 20.6367C17.0266 20.5438 16.8841 20.4706 16.7217 20.416L15.9902 20.1709C15.8971 20.1405 15.7954 20.1033 15.6865 20.0576C15.5772 20.0124 15.4757 19.949 15.3818 19.8672C15.2885 19.7856 15.2106 19.6815 15.1514 19.5547C15.0919 19.4282 15.0625 19.2648 15.0625 19.0654C15.0625 18.8972 15.0972 18.7391 15.166 18.5947C15.2348 18.4499 15.3286 18.3233 15.4473 18.2148C15.5659 18.1061 15.7084 18.0224 15.874 17.9619C16.0393 17.9015 16.2186 17.8701 16.4121 17.8701ZM20.1328 17.9883H21.4629V18.1152H20.1328V21.0762C20.1328 21.2456 20.1499 21.3829 20.1846 21.4893C20.2186 21.5943 20.2635 21.6758 20.3193 21.7334C20.3759 21.7903 20.4373 21.8285 20.5029 21.8467C20.5683 21.8648 20.6321 21.874 20.6943 21.874C20.9131 21.874 21.0898 21.7968 21.2246 21.6416C21.3586 21.4888 21.4445 21.3123 21.4824 21.1133L21.6133 21.1582C21.5943 21.2368 21.5671 21.3239 21.5293 21.4209C21.4917 21.5166 21.4336 21.6094 21.3555 21.6963C21.2773 21.7838 21.1762 21.8573 21.0508 21.915C20.9256 21.9719 20.7696 22 20.582 22C20.1139 22 19.7866 21.9131 19.6025 21.7383C19.4188 21.5629 19.3262 21.3151 19.3262 20.9951V18.1152H18.6055V17.9883H19.3262V16.8203C19.3762 16.8382 19.4231 16.8536 19.4668 16.8652C19.5105 16.8777 19.5858 16.8838 19.6914 16.8838C19.7847 16.8838 19.8667 16.8731 19.9355 16.8516C20.0041 16.8311 20.0701 16.7955 20.1328 16.748V17.9883ZM24.0967 17.8701C24.2711 17.8701 24.4594 17.9014 24.6592 17.9619C24.8585 18.0225 25.0447 18.1195 25.2158 18.2559C25.3878 18.3922 25.5314 18.5707 25.6475 18.7939C25.7629 19.0173 25.8213 19.2954 25.8213 19.627H22.9346C22.9346 19.6871 22.9329 19.749 22.9297 19.8125C22.9265 19.8759 22.9248 19.9564 22.9248 20.0527C22.9248 20.2519 22.9372 20.4601 22.9629 20.6777C22.9874 20.8949 23.0426 21.0918 23.127 21.2666C23.2115 21.4417 23.3359 21.587 23.501 21.7012C23.6664 21.816 23.8871 21.874 24.1621 21.874C24.4369 21.874 24.6638 21.8346 24.8418 21.7559C25.0196 21.678 25.1595 21.5822 25.2627 21.4697C25.366 21.3589 25.443 21.2457 25.4932 21.1309C25.5427 21.0166 25.5807 20.9231 25.6055 20.8506L25.7461 20.877C25.7274 20.9432 25.6902 21.0394 25.6377 21.1631C25.5846 21.2872 25.5005 21.4109 25.3848 21.5342C25.269 21.658 25.113 21.7661 24.916 21.8604C24.7197 21.9535 24.4643 22 24.1523 22C23.8403 22 23.551 21.9512 23.2861 21.8555C23.0207 21.7583 22.7903 21.6195 22.5967 21.4385C22.4033 21.2567 22.2536 21.0421 22.1475 20.792C22.0413 20.5416 21.9883 20.2604 21.9883 19.9531C21.9883 19.6869 22.043 19.4293 22.1523 19.1787C22.2614 18.9284 22.4121 18.708 22.6025 18.5137C22.7927 18.3213 23.0152 18.1651 23.2715 18.0469C23.5273 17.9289 23.8027 17.8701 24.0967 17.8701ZM28.21 17.8701C28.3477 17.8701 28.459 17.8813 28.543 17.9023C28.6275 17.9231 28.7007 17.9445 28.7637 17.9658C28.8259 17.9862 28.8816 18.0078 28.9316 18.0293C28.9818 18.05 29.0412 18.0605 29.1104 18.0605C29.1787 18.0605 29.2283 18.0367 29.2598 17.9883H29.3623V19.0215H29.2598C29.216 18.8882 29.1661 18.7594 29.1104 18.6357C29.0538 18.5116 28.9864 18.4021 28.9082 18.3047C28.8303 18.2089 28.733 18.1331 28.6172 18.0791C28.502 18.0252 28.3664 17.9971 28.21 17.9971C27.9104 17.9971 27.6771 18.0628 27.5117 18.1924C27.3465 18.3219 27.2637 18.4953 27.2637 18.7129C27.2637 18.9062 27.3346 19.0523 27.4746 19.1523C27.6155 19.251 27.8226 19.3443 28.0977 19.4287L28.7822 19.6455C29.0753 19.7421 29.3161 19.8746 29.5039 20.0439C29.6908 20.2133 29.7851 20.4358 29.7852 20.7139C29.7852 20.8766 29.752 21.0372 29.6865 21.1934C29.6206 21.3511 29.5238 21.4888 29.3955 21.6064C29.2677 21.7236 29.1117 21.8197 28.9268 21.8916C28.7431 21.9646 28.5319 22 28.2949 22C28.1573 22 28.0308 21.9865 27.915 21.959C27.7998 21.932 27.6929 21.9039 27.5967 21.874C27.4993 21.8436 27.4102 21.8148 27.3291 21.7881C27.2481 21.7603 27.1733 21.7471 27.1045 21.7471C27.0355 21.7471 26.986 21.7603 26.9551 21.7881C26.9233 21.8148 26.8983 21.8436 26.8799 21.874H26.7764V20.6055H26.8799C26.9231 20.7499 26.979 20.8971 27.0479 21.0449C27.1167 21.1927 27.2091 21.3291 27.3252 21.4521C27.4401 21.576 27.5824 21.678 27.751 21.7559C27.9195 21.8346 28.1227 21.874 28.3604 21.874C28.5602 21.874 28.7385 21.8143 28.8945 21.6963C29.0504 21.5787 29.1288 21.3869 29.1289 21.1221C29.1289 20.8927 29.0674 20.7308 28.9463 20.6367C28.8239 20.5438 28.6819 20.4706 28.5195 20.416L27.7881 20.1709C27.6949 20.1405 27.5929 20.1033 27.4844 20.0576C27.3747 20.0124 27.2736 19.9491 27.1797 19.8672C27.0858 19.7856 27.0091 19.6815 26.9502 19.5547C26.8907 19.4282 26.8604 19.2649 26.8604 19.0654C26.8604 18.8972 26.8947 18.7391 26.9639 18.5947C27.0324 18.4498 27.127 18.3234 27.2451 18.2148C27.3637 18.1062 27.5058 18.0224 27.6709 17.9619C27.8363 17.9014 28.0163 17.8701 28.21 17.8701ZM10.6963 21.7471H11.418V21.874H9.16895V21.7471H9.89062V15.4707H9.16895V15.3447H10.6963V21.7471ZM13.4697 21.7461H14.1914V21.873H11.9424V21.7461H12.6641V18.1152H11.9424V17.9883H13.4697V21.7461ZM24.0586 17.9971C23.8464 17.9971 23.6715 18.0385 23.5342 18.1191C23.3965 18.2016 23.2871 18.3118 23.2061 18.4502C23.1248 18.5894 23.0637 18.7482 23.0234 18.9297C22.9823 19.1108 22.9563 19.3017 22.9443 19.501H24.8652C24.8769 19.4166 24.8838 19.3374 24.8838 19.2646V19.0391C24.8838 18.8344 24.8631 18.665 24.8223 18.5322C24.7814 18.3998 24.7261 18.293 24.6543 18.2148C24.5825 18.1367 24.4949 18.0804 24.3916 18.0469C24.2886 18.0142 24.1773 17.9971 24.0586 17.9971ZM13.0488 15.3984C13.1858 15.3985 13.3023 15.4462 13.3994 15.5391C13.4965 15.6333 13.5448 15.7455 13.5449 15.8789C13.5449 16.0114 13.4966 16.1245 13.3994 16.2178C13.3024 16.3114 13.186 16.3583 13.0488 16.3584C12.9114 16.3584 12.7934 16.3119 12.6963 16.2178C12.5999 16.1246 12.5518 16.0113 12.5518 15.8789C12.5519 15.7456 12.6001 15.6333 12.6963 15.5391C12.7934 15.4461 12.9114 15.3984 13.0488 15.3984ZM28.9668 10.0791C29.1269 10.0791 29.1859 10.0903 29.2363 10.1357L29.249 10.1484C29.3161 10.2179 29.3448 10.3095 29.3379 10.4424L29.3008 10.7393C29.2983 10.7841 29.2998 10.8205 29.3057 10.8379C29.3281 10.905 29.1646 11.2768 29.0371 11.4482C28.9963 11.5032 28.927 11.613 28.8818 11.6953C28.836 11.7777 28.7808 11.8663 28.7568 11.8936C28.6961 11.9627 28.4038 12.3839 28.4004 12.4072C28.4004 12.4274 28.3734 12.4608 28.1709 12.6816C27.9567 12.9157 27.9533 12.9224 27.9521 13.1406C27.9484 13.7762 28.0087 14.1028 28.1709 14.3174C28.2598 14.435 28.3612 14.5207 28.5195 14.5107C28.822 14.4914 29.0482 14.3087 29.2471 14.1035C29.3126 14.0361 29.3445 13.9385 29.3955 13.8584C29.5223 13.6584 29.6254 13.4468 29.7432 13.2422C29.7807 13.1776 29.8342 13.1236 29.8721 13.0596C29.9251 12.9707 29.9771 12.8889 30.0586 12.8213C30.0784 12.8052 30.1036 12.7892 30.1289 12.7949C30.1514 12.8009 30.1656 12.8235 30.168 12.8457C30.1706 12.8684 30.1633 12.8908 30.1562 12.9121C30.0483 13.2318 29.8967 13.527 29.7334 13.8223L29.7217 13.8447C29.6161 14.034 29.5083 14.2256 29.3779 14.4004C29.2621 14.5561 29.0842 14.6804 28.9062 14.7656C28.8453 14.7946 28.7743 14.8092 28.7148 14.8398C28.6598 14.8682 28.6143 14.8994 28.5508 14.9131C28.2476 14.977 27.5976 14.9003 27.4453 14.7822C27.4176 14.7609 27.3475 14.7199 27.293 14.6943C27.2368 14.6674 27.1003 14.5588 26.9844 14.4492C26.7954 14.2698 26.7099 14.1263 26.6729 13.8555C26.6701 13.8612 26.6679 13.8672 26.665 13.873C26.3824 14.4353 26.1981 14.6229 25.8789 14.8662C25.7557 14.96 25.6201 14.9599 25.4854 14.9414C24.9199 14.7727 24.6131 14.1544 24.5518 13.3115C24.5394 13.1053 24.5518 12.9182 24.5518 12.7305C24.4906 12.6744 24.4651 12.749 24.4404 12.7861C24.2931 13.0862 24.1701 13.4048 24.0596 13.7422C23.8874 14.2289 23.7523 14.7354 23.5928 15.2227C23.5927 15.4284 23.5437 15.5969 23.4824 15.7656C23.4085 15.9713 23.3098 16.047 23.1621 15.9717C22.8796 15.8593 22.6344 15.6528 22.4258 15.3154C22.3274 15.1468 22.2898 14.9223 22.2529 14.6787C22.1545 14.1356 22.1546 13.5925 22.1914 13.0488V12.9365C22.2161 12.7865 22.2041 12.6175 22.2412 12.4678C22.2675 12.3328 22.2821 12.1981 22.2969 12.0703C22.1286 12.5691 22.073 13.0956 21.9385 13.6025C21.8962 13.7634 21.9072 13.9275 21.9072 14.0898C21.9072 14.2905 21.9318 14.4739 22.1357 14.5742C22.2007 14.6055 22.2444 14.6698 22.2129 14.7646C22.1843 14.8552 22.1127 14.8382 22.0547 14.8516C21.731 14.9251 21.3908 14.6365 21.2637 14.3896C21.1967 14.2604 21.1581 14.1248 21.1426 13.9785C21.1359 13.9046 21.1468 13.8234 21.0859 13.7598C20.8845 13.9987 20.6848 14.2319 20.5225 14.4961C20.3212 14.822 20.0563 14.9275 19.6729 14.832C19.151 14.7021 18.9032 14.3438 18.7783 13.8486C18.743 13.706 18.6782 13.5569 18.7471 13.4023C18.5738 13.0681 18.6621 12.7086 18.6846 12.3652C18.7024 12.0939 18.7541 11.8162 18.7783 11.5469C18.8197 11.1 18.9741 10.677 18.9668 10.1963C19.2897 10.4132 19.6747 10.3966 19.9688 10.626C20.0352 10.677 20.1098 10.7149 20.1797 10.7617C20.2112 10.7822 20.2624 10.8174 20.2598 10.835C20.222 11.0204 20.3663 11.1185 20.4258 11.2568C20.4889 11.4069 20.4462 11.5762 20.3975 11.7324C20.3368 11.9251 20.3592 12.1282 20.3301 12.3271C20.265 12.7742 20.1782 13.2094 19.9912 13.6201C19.9286 13.7576 19.8848 13.9046 19.9521 14.0869C20.0035 14.0535 20.1035 14.1718 20.1201 14.1514C20.7816 14.1764 20.7947 13.6405 21.1621 13.2227C21.4238 12.9271 21.4927 12.0912 21.5898 11.7207C21.6613 11.4541 21.8095 11.3433 22.0732 11.3848C22.0915 11.387 22.1104 11.3909 22.127 11.3945C22.2719 11.423 22.3621 11.4552 22.4082 11.5088C22.4177 11.4726 22.427 11.4364 22.4375 11.4004C22.4741 11.3254 22.5114 11.25 22.5361 11.2129C22.5729 11.1567 22.6217 11.1194 22.6582 11.0635C22.7566 11.0076 22.843 10.9875 22.9414 11.0068C23.1625 11.0627 23.3835 11.1382 23.5557 11.3633C23.654 11.4568 23.7158 11.5883 23.7402 11.7568C23.7523 11.9253 23.7646 12.1134 23.7646 12.2812C23.777 12.4874 23.7773 12.6933 23.7773 12.8994C23.9244 12.6561 24.072 12.4304 24.207 12.1865C24.3302 11.981 24.4903 11.8503 24.6621 11.7383L24.7109 11.7188C24.9565 11.644 25.1413 11.8317 25.3379 11.9629C25.4728 12.0753 25.5221 12.3185 25.5713 12.5244C25.596 12.5993 25.583 12.6925 25.5586 12.749C25.4602 13.0862 25.4975 13.4235 25.4482 13.7422C25.4359 13.8546 25.4362 13.9674 25.4238 14.0986C25.4239 14.2482 25.4978 14.4532 25.5957 14.4912C25.7065 14.5289 25.8052 14.4536 25.8789 14.3789C25.9771 14.2664 26.137 14.1916 26.2227 14.0605C26.4921 13.65 26.3588 13.7785 26.6494 13.168C26.6591 12.9099 26.6998 12.7458 26.8301 12.3223C26.8832 12.1509 26.9537 11.9189 26.9863 11.8105C27.019 11.7017 27.0655 11.5902 27.0889 11.5635C27.1126 11.5352 27.1553 11.431 27.1855 11.3291C27.2156 11.2271 27.271 11.1072 27.3086 11.0605C27.346 11.0144 27.3767 10.9626 27.377 10.9453C27.377 10.9286 27.4177 10.8776 27.4658 10.835C27.5145 10.7915 27.6151 10.6781 27.6895 10.582C27.7641 10.4867 27.8817 10.3739 27.9531 10.3301C28.0248 10.2863 28.1057 10.2285 28.1338 10.2012C28.1907 10.1463 28.6494 10.0791 28.9668 10.0791ZM11.4727 10.3945C11.6476 10.3945 11.8351 10.425 12.0352 10.4844C12.2347 10.5449 12.4215 10.6437 12.5928 10.7793C12.7648 10.9146 12.9081 11.095 13.0244 11.3184C13.1395 11.5415 13.1973 11.8195 13.1973 12.1514H10.3105C10.3105 12.2119 10.3096 12.2741 10.3066 12.3369C10.3034 12.4005 10.3018 12.4795 10.3018 12.5762C10.3018 12.7757 10.3142 12.984 10.3398 13.2012C10.3643 13.4183 10.4189 13.615 10.5029 13.79C10.5872 13.9653 10.7124 14.1095 10.8779 14.2246C11.0433 14.3389 11.264 14.3965 11.5391 14.3965C11.8135 14.3965 12.0399 14.3572 12.2178 14.2793C12.3957 14.2 12.5364 14.1049 12.6396 13.9932C12.7429 13.8809 12.8193 13.7685 12.8691 13.6543C12.919 13.5396 12.9567 13.4458 12.9814 13.373L13.123 13.4014C13.1044 13.4676 13.0674 13.5615 13.0146 13.6855C12.9622 13.8088 12.8774 13.9328 12.7617 14.0566C12.6462 14.1803 12.4902 14.2904 12.293 14.3828C12.0961 14.4771 11.8416 14.5234 11.5293 14.5234C11.2172 14.5234 10.9282 14.4748 10.6631 14.3779C10.3971 14.2822 10.167 14.1435 9.97363 13.9619C9.78001 13.7815 9.63001 13.5647 9.52441 13.3145C9.41794 13.0637 9.36426 12.7844 9.36426 12.4766C9.36432 12.2115 9.41899 11.9534 9.52832 11.7031C9.63712 11.4524 9.78747 11.2298 9.97852 11.0371C10.1684 10.8438 10.3921 10.6884 10.6484 10.5713C10.9042 10.4534 11.1793 10.3946 11.4727 10.3945ZM15.4365 10.5117H16.7666V10.6396H15.4365V13.6006C15.4366 13.7688 15.4536 13.9067 15.4873 14.0117C15.522 14.1169 15.5683 14.1993 15.624 14.2559C15.6805 14.3134 15.7411 14.3516 15.8066 14.3691C15.8718 14.3867 15.9358 14.3964 15.998 14.3965C16.2168 14.3965 16.3935 14.3189 16.5283 14.166C16.6625 14.012 16.7485 13.8347 16.7861 13.6357L16.917 13.6807C16.8983 13.7596 16.8703 13.8476 16.833 13.9434C16.7951 14.0403 16.7374 14.1326 16.6592 14.2207C16.581 14.3075 16.4789 14.3799 16.3545 14.4375C16.2291 14.4942 16.0731 14.5234 15.8857 14.5234C15.4177 14.5234 15.0913 14.4354 14.9072 14.2598C14.7235 14.0853 14.6299 13.839 14.6299 13.5186V10.6387H13.9092V10.5127H14.6299V9.34375C14.6801 9.36194 14.7277 9.37799 14.7715 9.38965C14.8153 9.40151 14.8905 9.40723 14.9961 9.40723C15.0891 9.4072 15.1706 9.39663 15.2393 9.37598C15.3078 9.35381 15.3738 9.32035 15.4365 9.27148V10.5117ZM29.124 10.3047C29.0293 10.2681 28.9393 10.2782 28.793 10.3418C28.6566 10.4008 28.3337 10.6788 28.332 10.7383C28.332 10.7545 28.3033 10.7957 28.2695 10.8281C28.2342 10.8611 28.1792 10.9603 28.1445 11.0527C28.1104 11.145 28.0704 11.2338 28.0547 11.2539C27.9706 11.3646 27.8724 12.4835 27.9463 12.4873C27.9615 12.4867 28.0115 12.4338 28.0576 12.3682C28.1046 12.3022 28.1801 12.2088 28.2285 12.1582C28.2771 12.1074 28.3755 11.9831 28.4512 11.8779C28.5273 11.7725 28.6211 11.648 28.6631 11.5977C28.7046 11.5478 28.8345 11.3231 28.9502 11.0986C29.1209 10.7689 29.1637 10.6542 29.1719 10.5078C29.18 10.3629 29.1701 10.3226 29.124 10.3047ZM11.4355 10.5215C11.2233 10.5215 11.0485 10.5621 10.9111 10.6436C10.7734 10.7246 10.6641 10.8352 10.583 10.9736C10.5019 11.112 10.4412 11.2728 10.4004 11.4541C10.3598 11.6346 10.3323 11.8252 10.3203 12.0244H12.2412C12.2532 11.9397 12.2607 11.8606 12.2607 11.7881V11.5625C12.2607 11.3568 12.24 11.1883 12.1992 11.0547C12.1584 10.9222 12.102 10.8173 12.0303 10.7383C11.9583 10.6602 11.8717 10.6037 11.7686 10.5713C11.6656 10.5375 11.554 10.5215 11.4355 10.5215ZM28.0039 4.52637C28.1788 4.52641 28.3667 4.55725 28.5664 4.61719C28.7657 4.67744 28.952 4.77516 29.123 4.91113C29.2952 5.04701 29.4386 5.22734 29.5547 5.4502C29.6698 5.67349 29.7285 5.9508 29.7285 6.28223H26.8418C26.8418 6.34277 26.8401 6.40536 26.8369 6.46875C26.8337 6.53196 26.833 6.61181 26.833 6.70801C26.833 6.90691 26.8448 7.11564 26.8701 7.33301C26.8949 7.55047 26.9499 7.74734 27.0342 7.92188C27.1185 8.09705 27.2436 8.24228 27.4092 8.35645C27.5745 8.47113 27.7944 8.52832 28.0693 8.52832C28.3441 8.52831 28.5711 8.48986 28.749 8.41113C28.9268 8.33299 29.0677 8.23791 29.1709 8.12598C29.2741 8.01487 29.3502 7.90122 29.4004 7.78613C29.45 7.67186 29.4879 7.57806 29.5127 7.50586L29.6533 7.53223C29.6347 7.59844 29.598 7.69419 29.5449 7.81836C29.4924 7.94195 29.4077 8.06545 29.292 8.18848C29.1765 8.31241 29.0204 8.42153 28.8232 8.51562C28.6264 8.60845 28.3715 8.65527 28.0596 8.65527C27.7475 8.65524 27.4585 8.60679 27.1934 8.51074C26.9274 8.41355 26.6979 8.27472 26.5049 8.09375C26.3109 7.91239 26.1603 7.69701 26.0547 7.44629C25.9486 7.19632 25.8956 6.91638 25.8955 6.60938C25.8955 6.34335 25.9502 6.08536 26.0596 5.83496C26.1684 5.58453 26.3187 5.36253 26.5098 5.16895C26.6995 4.97591 26.9226 4.82043 27.1787 4.70312C27.4345 4.58516 27.7104 4.52637 28.0039 4.52637ZM14.875 4.54492C15.7868 4.54492 16.2431 4.99432 16.2432 5.89355V8.40234H16.9648V8.5293H14.7158V8.40234H15.4375V5.32324C15.4375 5.11844 15.3797 4.95801 15.2646 4.84375C15.1489 4.72897 14.991 4.67194 14.791 4.67188C14.6347 4.67188 14.4786 4.70039 14.3223 4.75781C14.1659 4.81495 14.0255 4.90052 13.9004 5.01562C13.7751 5.13044 13.6745 5.27831 13.5967 5.45898C13.518 5.64029 13.4785 5.85182 13.4785 6.09277V8.40234H14.2002V8.52832H11.9512V8.40234H12.6729V5.4502C12.6729 5.18454 12.6171 4.9884 12.5049 4.86133C12.3923 4.73455 12.2417 4.67188 12.0547 4.67188C11.9235 4.67191 11.7793 4.70325 11.623 4.7666C11.4673 4.82971 11.3216 4.92892 11.1875 5.06445C11.0533 5.20033 10.9407 5.37784 10.8506 5.59473C10.7597 5.81265 10.7139 6.07772 10.7139 6.3916V8.40234H11.4365V8.52832H9.1875V8.40234H9.90918V4.77051H9.1875V4.64355H10.6963V5.59473H10.7139C10.8451 5.23288 11.0348 4.96699 11.2812 4.79785C11.528 4.629 11.8273 4.54492 12.1768 4.54492C12.489 4.54499 12.7653 4.61174 13.0059 4.74414C13.2464 4.8769 13.4039 5.09712 13.4785 5.4043H13.498C13.5418 5.29631 13.6008 5.19076 13.6758 5.08789C13.7507 4.98557 13.8444 4.89309 13.957 4.81152C14.0693 4.72967 14.2026 4.66522 14.3555 4.61719C14.5082 4.56895 14.6815 4.54494 14.875 4.54492ZM18.9424 8.40137H19.6641V8.52832H17.415V8.40234H18.1357V4.77051H17.415V4.64355H18.9424V8.40137ZM21.7158 8.40234H22.4375V8.52832H20.1885V8.40234H20.9102V2.12695H20.1885V2H21.7158V8.40234ZM24.4902 8.40234H25.2109V8.52832H22.9619V8.40234H23.6836V2.12695H22.9619V2H24.4902V8.40234ZM27.9668 4.65234C27.7538 4.65234 27.5788 4.69409 27.4414 4.77539C27.3038 4.85664 27.1953 4.96718 27.1143 5.10547C27.0326 5.24465 26.9715 5.40377 26.9307 5.58496C26.8901 5.76632 26.8638 5.95727 26.8516 6.15625H28.7715C28.784 6.07197 28.791 5.99413 28.791 5.9209V5.69434C28.791 5.48967 28.77 5.31984 28.7295 5.18652C28.6887 5.05454 28.6329 4.94849 28.5615 4.87012C28.4895 4.79199 28.4018 4.73609 28.2988 4.70312C28.1957 4.67022 28.0848 4.65237 27.9668 4.65234ZM18.5205 2.05371C18.6578 2.05375 18.7747 2.10119 18.8721 2.19434C18.9689 2.2878 19.0175 2.40124 19.0176 2.53418C19.0176 2.66655 18.9688 2.77956 18.8721 2.87305C18.7747 2.96681 18.6578 3.01363 18.5205 3.01367C18.3834 3.01367 18.2661 2.96685 18.1689 2.87305C18.0722 2.77956 18.0244 2.66657 18.0244 2.53418C18.0245 2.40125 18.0722 2.2878 18.1689 2.19434C18.2661 2.10118 18.3835 2.05371 18.5205 2.05371Z" fill="white"/>
</svg>
