<svg width="90" height="24" viewBox="0 0 90 24" fill="none" xmlns="http://www.w3.org/2000/svg">
<rect x="0.5" y="0.5" width="89" height="23" rx="2.45381" fill="white" stroke="#EDEDED"/>
<path d="M13.7832 13.7529H15.4375C15.4056 14.473 15.2598 15.0859 15 15.5918C14.7402 16.0931 14.3665 16.4759 13.8789 16.7402C13.3958 17.0046 12.8057 17.1367 12.1084 17.1367C11.5798 17.1367 11.1058 17.041 10.6865 16.8496C10.2718 16.6582 9.91862 16.3825 9.62695 16.0225C9.33529 15.6579 9.11198 15.2135 8.95703 14.6895C8.80664 14.1654 8.73145 13.5706 8.73145 12.9053V11.1416C8.73145 10.4762 8.80892 9.88151 8.96387 9.35742C9.12337 8.83333 9.35124 8.389 9.64746 8.02441C9.94368 7.65983 10.3037 7.38411 10.7275 7.19727C11.1559 7.00586 11.639 6.91016 12.1768 6.91016C12.8649 6.91016 13.4437 7.04232 13.9131 7.30664C14.3825 7.57096 14.7448 7.95833 15 8.46875C15.2552 8.97917 15.4033 9.60124 15.4443 10.335H13.79C13.7673 9.83822 13.6989 9.44173 13.585 9.14551C13.4756 8.84473 13.307 8.62826 13.0791 8.49609C12.8558 8.36393 12.555 8.29785 12.1768 8.29785C11.8623 8.29785 11.5911 8.3571 11.3633 8.47559C11.14 8.59408 10.9554 8.77181 10.8096 9.00879C10.6683 9.24121 10.5612 9.53516 10.4883 9.89062C10.4199 10.2415 10.3857 10.654 10.3857 11.1279V12.9053C10.3857 13.361 10.4154 13.7643 10.4746 14.1152C10.5339 14.4661 10.6296 14.7646 10.7617 15.0107C10.8939 15.2523 11.0693 15.4368 11.2881 15.5645C11.5068 15.6875 11.7803 15.749 12.1084 15.749C12.5003 15.749 12.8125 15.6875 13.0449 15.5645C13.2819 15.4414 13.4574 15.234 13.5713 14.9424C13.6852 14.6507 13.7559 14.2542 13.7832 13.7529ZM20.2021 15.4961V11.8115C20.2021 11.5563 20.1657 11.3512 20.0928 11.1963C20.0244 11.0413 19.9219 10.9297 19.7852 10.8613C19.653 10.7884 19.4867 10.752 19.2861 10.752C19.0765 10.752 18.8988 10.7952 18.7529 10.8818C18.6117 10.9684 18.5046 11.0869 18.4316 11.2373C18.3587 11.3831 18.3223 11.5518 18.3223 11.7432H16.7295C16.7295 11.4469 16.7887 11.1621 16.9072 10.8887C17.0303 10.6152 17.2057 10.3714 17.4336 10.1572C17.6615 9.94303 17.9372 9.77441 18.2607 9.65137C18.5843 9.52832 18.9443 9.4668 19.3408 9.4668C19.8148 9.4668 20.2363 9.54655 20.6055 9.70605C20.9746 9.861 21.264 10.1139 21.4736 10.4648C21.6878 10.8112 21.7949 11.2669 21.7949 11.832V15.2842C21.7949 15.626 21.8154 15.9313 21.8564 16.2002C21.902 16.4645 21.9635 16.6947 22.041 16.8906V17H20.4209C20.348 16.8223 20.2933 16.5944 20.2568 16.3164C20.2204 16.0384 20.2021 15.765 20.2021 15.4961ZM20.4141 12.4951L20.4209 13.5273H19.6553C19.4274 13.5273 19.2223 13.5592 19.04 13.623C18.8577 13.6823 18.7028 13.7689 18.5752 13.8828C18.4521 13.9922 18.3564 14.1266 18.2881 14.2861C18.2243 14.4456 18.1924 14.6211 18.1924 14.8125C18.1924 15.0449 18.2243 15.234 18.2881 15.3799C18.3564 15.5257 18.4544 15.6351 18.582 15.708C18.7142 15.7764 18.8737 15.8105 19.0605 15.8105C19.3158 15.8105 19.5368 15.7559 19.7236 15.6465C19.915 15.5326 20.0609 15.3958 20.1611 15.2363C20.266 15.0768 20.307 14.931 20.2842 14.7988L20.6465 15.4619C20.61 15.6351 20.5417 15.8174 20.4414 16.0088C20.3457 16.2002 20.2204 16.3825 20.0654 16.5557C19.9105 16.7288 19.7236 16.8701 19.5049 16.9795C19.2861 17.0843 19.0332 17.1367 18.7461 17.1367C18.3314 17.1367 17.9622 17.0501 17.6387 16.877C17.3151 16.7038 17.0599 16.4554 16.873 16.1318C16.6908 15.8037 16.5996 15.4118 16.5996 14.9561C16.5996 14.5869 16.6611 14.252 16.7842 13.9512C16.9072 13.6504 17.0895 13.3929 17.3311 13.1787C17.5726 12.96 17.8757 12.7913 18.2402 12.6729C18.6094 12.5544 19.04 12.4951 19.5322 12.4951H20.4141ZM25.0215 11.0322V17H23.4287V9.60352H24.9463L25.0215 11.0322ZM26.8057 9.55566L26.7988 11.1279C26.7077 11.1051 26.6097 11.0915 26.5049 11.0869C26.4046 11.0778 26.3044 11.0732 26.2041 11.0732C25.9854 11.0732 25.7962 11.112 25.6367 11.1895C25.4772 11.2669 25.3428 11.3786 25.2334 11.5244C25.124 11.6702 25.0374 11.8457 24.9736 12.0508C24.9144 12.2559 24.8779 12.4883 24.8643 12.748L24.5225 12.7617C24.5225 12.2969 24.5589 11.8662 24.6318 11.4697C24.7048 11.0687 24.8141 10.7201 24.96 10.4238C25.1104 10.123 25.2972 9.88835 25.5205 9.71973C25.7438 9.55111 26.0036 9.4668 26.2998 9.4668C26.3818 9.4668 26.4753 9.47591 26.5801 9.49414C26.6849 9.51237 26.7601 9.53288 26.8057 9.55566ZM31.2285 9.60352V10.834H27.5986V9.60352H31.2285ZM28.5898 7.79199H30.1758V14.9355C30.1758 15.1634 30.2008 15.3366 30.251 15.4551C30.3011 15.5736 30.3717 15.6533 30.4629 15.6943C30.554 15.7354 30.6611 15.7559 30.7842 15.7559C30.8753 15.7559 30.9642 15.749 31.0508 15.7354C31.1419 15.7171 31.208 15.7012 31.249 15.6875V16.9727C31.1305 17.0182 30.9938 17.057 30.8389 17.0889C30.6839 17.1208 30.4971 17.1367 30.2783 17.1367C29.9548 17.1367 29.6654 17.0706 29.4102 16.9385C29.1549 16.8018 28.9544 16.5807 28.8086 16.2754C28.6628 15.9655 28.5898 15.5553 28.5898 15.0449V7.79199ZM35.2959 17.1367C34.8174 17.1367 34.3913 17.0661 34.0176 16.9248C33.6439 16.779 33.3271 16.5648 33.0674 16.2822C32.8076 15.9951 32.6094 15.6442 32.4727 15.2295C32.3359 14.8102 32.2676 14.3249 32.2676 13.7734V13.0625C32.2676 12.4382 32.3382 11.9004 32.4795 11.4492C32.6253 10.9935 32.8258 10.6198 33.0811 10.3281C33.3363 10.0365 33.637 9.81999 33.9834 9.67871C34.3343 9.53743 34.7148 9.4668 35.125 9.4668C35.5898 9.4668 35.9932 9.54199 36.335 9.69238C36.6768 9.84277 36.957 10.0684 37.1758 10.3691C37.3991 10.6699 37.5632 11.0413 37.668 11.4834C37.7773 11.9255 37.832 12.4336 37.832 13.0078V13.8076H33.0332V12.6045H36.2598V12.4336C36.2507 12.0964 36.2096 11.807 36.1367 11.5654C36.0638 11.3193 35.9453 11.1325 35.7812 11.0049C35.6217 10.8727 35.4007 10.8066 35.1182 10.8066C34.9131 10.8066 34.7308 10.8454 34.5713 10.9229C34.4118 11.0003 34.2796 11.1257 34.1748 11.2988C34.0745 11.472 33.9971 11.7044 33.9424 11.9961C33.8877 12.2832 33.8604 12.6387 33.8604 13.0625V13.7734C33.8604 14.1426 33.8923 14.4548 33.9561 14.71C34.0244 14.9652 34.1247 15.1748 34.2568 15.3389C34.389 15.4984 34.5485 15.6169 34.7354 15.6943C34.9268 15.7673 35.1478 15.8037 35.3984 15.8037C35.7676 15.8037 36.0843 15.7354 36.3486 15.5986C36.6175 15.4574 36.8499 15.2751 37.0459 15.0518L37.75 16.0293C37.6178 16.207 37.4401 16.3825 37.2168 16.5557C36.9935 16.7243 36.7223 16.8633 36.4033 16.9727C36.0889 17.082 35.7197 17.1367 35.2959 17.1367ZM44.9619 15.8037C45.167 15.8037 45.3493 15.7604 45.5088 15.6738C45.6729 15.5872 45.8027 15.4528 45.8984 15.2705C45.9941 15.0837 46.0465 14.8421 46.0557 14.5459H47.5527C47.5436 15.07 47.4229 15.528 47.1904 15.9199C46.958 16.3073 46.6481 16.6081 46.2607 16.8223C45.8779 17.0319 45.4518 17.1367 44.9824 17.1367C44.4948 17.1367 44.0687 17.0592 43.7041 16.9043C43.3441 16.7448 43.0456 16.5146 42.8086 16.2139C42.5716 15.9131 42.3939 15.5485 42.2754 15.1201C42.1615 14.6872 42.1045 14.1927 42.1045 13.6367V12.9668C42.1045 12.4154 42.1615 11.9232 42.2754 11.4902C42.3939 11.0573 42.5716 10.6904 42.8086 10.3896C43.0456 10.0889 43.3441 9.861 43.7041 9.70605C44.0641 9.54655 44.488 9.4668 44.9756 9.4668C45.4951 9.4668 45.944 9.57617 46.3223 9.79492C46.7051 10.0091 47.0036 10.3236 47.2178 10.7383C47.432 11.153 47.5436 11.6611 47.5527 12.2627H46.0557C46.0465 11.9437 45.9987 11.6771 45.9121 11.4629C45.8255 11.2441 45.7025 11.0801 45.543 10.9707C45.388 10.8613 45.1921 10.8066 44.9551 10.8066C44.6953 10.8066 44.4811 10.8568 44.3125 10.957C44.1484 11.0527 44.0208 11.194 43.9297 11.3809C43.8431 11.5677 43.7816 11.7956 43.7451 12.0645C43.7132 12.3288 43.6973 12.6296 43.6973 12.9668V13.6367C43.6973 13.9831 43.7132 14.2907 43.7451 14.5596C43.777 14.8239 43.8363 15.0495 43.9229 15.2363C44.014 15.4232 44.1439 15.5645 44.3125 15.6602C44.4811 15.7559 44.6976 15.8037 44.9619 15.8037ZM52.2217 15.4961V11.8115C52.2217 11.5563 52.1852 11.3512 52.1123 11.1963C52.0439 11.0413 51.9414 10.9297 51.8047 10.8613C51.6725 10.7884 51.5062 10.752 51.3057 10.752C51.096 10.752 50.9183 10.7952 50.7725 10.8818C50.6312 10.9684 50.5241 11.0869 50.4512 11.2373C50.3783 11.3831 50.3418 11.5518 50.3418 11.7432H48.749C48.749 11.4469 48.8083 11.1621 48.9268 10.8887C49.0498 10.6152 49.2253 10.3714 49.4531 10.1572C49.681 9.94303 49.9567 9.77441 50.2803 9.65137C50.6038 9.52832 50.9639 9.4668 51.3604 9.4668C51.8343 9.4668 52.2559 9.54655 52.625 9.70605C52.9941 9.861 53.2835 10.1139 53.4932 10.4648C53.7074 10.8112 53.8145 11.2669 53.8145 11.832V15.2842C53.8145 15.626 53.835 15.9313 53.876 16.2002C53.9215 16.4645 53.9831 16.6947 54.0605 16.8906V17H52.4404C52.3675 16.8223 52.3128 16.5944 52.2764 16.3164C52.2399 16.0384 52.2217 15.765 52.2217 15.4961ZM52.4336 12.4951L52.4404 13.5273H51.6748C51.4469 13.5273 51.2419 13.5592 51.0596 13.623C50.8773 13.6823 50.7223 13.7689 50.5947 13.8828C50.4717 13.9922 50.376 14.1266 50.3076 14.2861C50.2438 14.4456 50.2119 14.6211 50.2119 14.8125C50.2119 15.0449 50.2438 15.234 50.3076 15.3799C50.376 15.5257 50.474 15.6351 50.6016 15.708C50.7337 15.7764 50.8932 15.8105 51.0801 15.8105C51.3353 15.8105 51.5563 15.7559 51.7432 15.6465C51.9346 15.5326 52.0804 15.3958 52.1807 15.2363C52.2855 15.0768 52.3265 14.931 52.3037 14.7988L52.666 15.4619C52.6296 15.6351 52.5612 15.8174 52.4609 16.0088C52.3652 16.2002 52.2399 16.3825 52.085 16.5557C51.93 16.7288 51.7432 16.8701 51.5244 16.9795C51.3057 17.0843 51.0527 17.1367 50.7656 17.1367C50.3509 17.1367 49.9818 17.0501 49.6582 16.877C49.3346 16.7038 49.0794 16.4554 48.8926 16.1318C48.7103 15.8037 48.6191 15.4118 48.6191 14.9561C48.6191 14.5869 48.6807 14.252 48.8037 13.9512C48.9268 13.6504 49.109 13.3929 49.3506 13.1787C49.5921 12.96 49.8952 12.7913 50.2598 12.6729C50.6289 12.5544 51.0596 12.4951 51.5518 12.4951H52.4336ZM59.167 15.4551V6.5H60.7598V17L59.3174 17.0068L59.167 15.4551ZM55.1953 13.6025V13.0215C55.1953 12.4154 55.25 11.8913 55.3594 11.4492C55.4688 11.0026 55.6283 10.6312 55.8379 10.335C56.0521 10.0387 56.3096 9.81999 56.6104 9.67871C56.9111 9.53743 57.2507 9.4668 57.6289 9.4668C57.998 9.4668 58.3171 9.55111 58.5859 9.71973C58.8548 9.88379 59.0827 10.1185 59.2695 10.4238C59.4564 10.7292 59.6045 11.0938 59.7139 11.5176C59.8278 11.9368 59.9053 12.4062 59.9463 12.9258V13.7324C59.8962 14.2337 59.8164 14.694 59.707 15.1133C59.5977 15.528 59.4495 15.8857 59.2627 16.1865C59.0758 16.4873 58.8457 16.722 58.5723 16.8906C58.3034 17.0547 57.9867 17.1367 57.6221 17.1367C57.2438 17.1367 56.9043 17.0615 56.6035 16.9111C56.3073 16.7607 56.0521 16.5374 55.8379 16.2412C55.6283 15.945 55.4688 15.5781 55.3594 15.1406C55.25 14.6986 55.1953 14.1859 55.1953 13.6025ZM56.7881 13.0215V13.6025C56.7881 13.9808 56.8109 14.3066 56.8564 14.5801C56.902 14.8535 56.9749 15.0791 57.0752 15.2568C57.1755 15.43 57.3076 15.5599 57.4717 15.6465C57.6357 15.7285 57.834 15.7695 58.0664 15.7695C58.3581 15.7695 58.5951 15.6966 58.7773 15.5508C58.9642 15.4049 59.1077 15.209 59.208 14.9629C59.3128 14.7122 59.3857 14.4342 59.4268 14.1289V12.5361C59.404 12.2946 59.3584 12.0713 59.29 11.8662C59.2217 11.6566 59.1328 11.4743 59.0234 11.3193C58.9141 11.1644 58.7796 11.0436 58.6201 10.957C58.4652 10.8659 58.2829 10.8203 58.0732 10.8203C57.8408 10.8203 57.6426 10.8659 57.4785 10.957C57.3145 11.0436 57.1823 11.1781 57.082 11.3604C56.9818 11.5381 56.9066 11.766 56.8564 12.0439C56.8109 12.3174 56.7881 12.6432 56.7881 13.0215ZM65.2236 17.1367C64.7451 17.1367 64.319 17.0661 63.9453 16.9248C63.5716 16.779 63.2549 16.5648 62.9951 16.2822C62.7354 15.9951 62.5371 15.6442 62.4004 15.2295C62.2637 14.8102 62.1953 14.3249 62.1953 13.7734V13.0625C62.1953 12.4382 62.266 11.9004 62.4072 11.4492C62.5531 10.9935 62.7536 10.6198 63.0088 10.3281C63.264 10.0365 63.5648 9.81999 63.9111 9.67871C64.262 9.53743 64.6426 9.4668 65.0527 9.4668C65.5176 9.4668 65.9209 9.54199 66.2627 9.69238C66.6045 9.84277 66.8848 10.0684 67.1035 10.3691C67.3268 10.6699 67.4909 11.0413 67.5957 11.4834C67.7051 11.9255 67.7598 12.4336 67.7598 13.0078V13.8076H62.9609V12.6045H66.1875V12.4336C66.1784 12.0964 66.1374 11.807 66.0645 11.5654C65.9915 11.3193 65.873 11.1325 65.709 11.0049C65.5495 10.8727 65.3285 10.8066 65.0459 10.8066C64.8408 10.8066 64.6585 10.8454 64.499 10.9229C64.3395 11.0003 64.2074 11.1257 64.1025 11.2988C64.0023 11.472 63.9248 11.7044 63.8701 11.9961C63.8154 12.2832 63.7881 12.6387 63.7881 13.0625V13.7734C63.7881 14.1426 63.82 14.4548 63.8838 14.71C63.9521 14.9652 64.0524 15.1748 64.1846 15.3389C64.3167 15.4984 64.4762 15.6169 64.6631 15.6943C64.8545 15.7673 65.0755 15.8037 65.3262 15.8037C65.6953 15.8037 66.012 15.7354 66.2764 15.5986C66.5452 15.4574 66.7777 15.2751 66.9736 15.0518L67.6777 16.0293C67.5456 16.207 67.3678 16.3825 67.1445 16.5557C66.9212 16.7243 66.6501 16.8633 66.3311 16.9727C66.0166 17.082 65.6475 17.1367 65.2236 17.1367ZM72.4697 15.4961V11.8115C72.4697 11.5563 72.4333 11.3512 72.3604 11.1963C72.292 11.0413 72.1895 10.9297 72.0527 10.8613C71.9206 10.7884 71.7542 10.752 71.5537 10.752C71.3441 10.752 71.1663 10.7952 71.0205 10.8818C70.8792 10.9684 70.7721 11.0869 70.6992 11.2373C70.6263 11.3831 70.5898 11.5518 70.5898 11.7432H68.9971C68.9971 11.4469 69.0563 11.1621 69.1748 10.8887C69.2979 10.6152 69.4733 10.3714 69.7012 10.1572C69.929 9.94303 70.2048 9.77441 70.5283 9.65137C70.8519 9.52832 71.2119 9.4668 71.6084 9.4668C72.0824 9.4668 72.5039 9.54655 72.873 9.70605C73.2422 9.861 73.5316 10.1139 73.7412 10.4648C73.9554 10.8112 74.0625 11.2669 74.0625 11.832V15.2842C74.0625 15.626 74.083 15.9313 74.124 16.2002C74.1696 16.4645 74.2311 16.6947 74.3086 16.8906V17H72.6885C72.6156 16.8223 72.5609 16.5944 72.5244 16.3164C72.488 16.0384 72.4697 15.765 72.4697 15.4961ZM72.6816 12.4951L72.6885 13.5273H71.9229C71.695 13.5273 71.4899 13.5592 71.3076 13.623C71.1253 13.6823 70.9704 13.7689 70.8428 13.8828C70.7197 13.9922 70.624 14.1266 70.5557 14.2861C70.4919 14.4456 70.46 14.6211 70.46 14.8125C70.46 15.0449 70.4919 15.234 70.5557 15.3799C70.624 15.5257 70.722 15.6351 70.8496 15.708C70.9818 15.7764 71.1413 15.8105 71.3281 15.8105C71.5833 15.8105 71.8044 15.7559 71.9912 15.6465C72.1826 15.5326 72.3285 15.3958 72.4287 15.2363C72.5335 15.0768 72.5745 14.931 72.5518 14.7988L72.9141 15.4619C72.8776 15.6351 72.8092 15.8174 72.709 16.0088C72.6133 16.2002 72.488 16.3825 72.333 16.5557C72.1781 16.7288 71.9912 16.8701 71.7725 16.9795C71.5537 17.0843 71.3008 17.1367 71.0137 17.1367C70.599 17.1367 70.2298 17.0501 69.9062 16.877C69.5827 16.7038 69.3275 16.4554 69.1406 16.1318C68.9583 15.8037 68.8672 15.4118 68.8672 14.9561C68.8672 14.5869 68.9287 14.252 69.0518 13.9512C69.1748 13.6504 69.3571 13.3929 69.5986 13.1787C69.8402 12.96 70.1432 12.7913 70.5078 12.6729C70.877 12.5544 71.3076 12.4951 71.7998 12.4951H72.6816ZM79.3467 15.2568V9.60352H80.9395V17H79.4424L79.3467 15.2568ZM79.5723 13.7119L80.0781 13.6982C80.0781 14.195 80.0326 14.653 79.9414 15.0723C79.8503 15.4915 79.709 15.8561 79.5176 16.166C79.3307 16.4714 79.0869 16.7106 78.7861 16.8838C78.4899 17.0524 78.1322 17.1367 77.7129 17.1367C77.4121 17.1367 77.1364 17.0843 76.8857 16.9795C76.6351 16.8747 76.4186 16.7129 76.2363 16.4941C76.054 16.2754 75.9128 15.9906 75.8125 15.6396C75.7122 15.2887 75.6621 14.8695 75.6621 14.3818V9.60352H77.2549V14.3955C77.2549 14.6598 77.2777 14.8809 77.3232 15.0586C77.3688 15.2318 77.4326 15.373 77.5146 15.4824C77.5967 15.5872 77.6878 15.6624 77.7881 15.708C77.8929 15.749 78.0046 15.7695 78.123 15.7695C78.4831 15.7695 78.7679 15.6807 78.9775 15.5029C79.1917 15.3206 79.3444 15.0745 79.4355 14.7646C79.5267 14.4548 79.5723 14.1038 79.5723 13.7119Z" fill="black"/>
</svg>
