<svg width="40" height="24" viewBox="0 0 40 24" fill="none" xmlns="http://www.w3.org/2000/svg">
<g clip-path="url(#clip0_16929_250009)">
<path opacity="0.07" d="M36.588 0H3.74594C2.0012 0 0.666992 1.3 0.666992 3V21C0.666992 22.7 2.10383 24 3.74594 24H36.588C38.3328 24 39.667 22.7 39.667 21V3C39.667 1.3 38.2302 0 36.588 0Z" fill="black"/>
<path d="M36.6114 1C37.742 1 38.667 1.9 38.667 3V21C38.667 22.1 37.742 23 36.6114 23H3.72255C2.59199 23 1.66699 22.1 1.66699 21V3C1.66699 1.9 2.59199 1 3.72255 1H36.6114Z" fill="white"/>
<path d="M15.667 19C19.533 19 22.667 15.866 22.667 12C22.667 8.13401 19.533 5 15.667 5C11.801 5 8.66699 8.13401 8.66699 12C8.66699 15.866 11.801 19 15.667 19Z" fill="#EB001B"/>
<path d="M23.667 19C27.533 19 30.667 15.866 30.667 12C30.667 8.13401 27.533 5 23.667 5C19.801 5 16.667 8.13401 16.667 12C16.667 15.866 19.801 19 23.667 19Z" fill="#F79E1B"/>
<path d="M22.667 11.5C22.667 9.18421 21.467 7.15789 19.667 6C17.867 7.25439 16.667 9.2807 16.667 11.5C16.667 13.7193 17.867 15.8421 19.667 17C21.467 15.8421 22.667 13.8158 22.667 11.5Z" fill="#FF5F00"/>
</g>
<defs>
<clipPath id="clip0_16929_250009">
<rect width="39" height="24" fill="white" transform="translate(0.666992)"/>
</clipPath>
</defs>
</svg>
