<svg width="38" height="24" viewBox="0 0 38 24" fill="none" xmlns="http://www.w3.org/2000/svg">
<g clip-path="url(#clip0_16929_250039)">
<path d="M34.597 0H3.40308C3.27316 0 3.14301 0 3.01332 0.000747416C2.9037 0.00151748 2.79433 0.00271788 2.68496 0.00566224C2.44642 0.0120266 2.20585 0.0259104 1.9703 0.0676751C1.73099 0.110165 1.5083 0.17947 1.29105 0.288593C1.07747 0.395745 0.881941 0.535897 0.712492 0.703137C0.542969 0.870377 0.400907 1.06296 0.292316 1.27389C0.181683 1.48822 0.111386 1.70798 0.0686154 1.94426C0.0260539 2.1767 0.0118866 2.41399 0.00545845 2.64907C0.00251985 2.75697 0.00125946 2.86487 0.000545477 2.97274C-0.00021213 3.10096 4.04057e-05 3.22909 4.04057e-05 3.35753V20.6427C4.04057e-05 20.7712 -0.00021213 20.8991 0.000545477 21.0275C0.00125946 21.1354 0.00251985 21.2433 0.00545845 21.3512C0.0118866 21.5861 0.0260539 21.8234 0.0686154 22.0557C0.111386 22.2921 0.181683 22.5118 0.292316 22.7261C0.400907 22.9371 0.542969 23.1299 0.712492 23.2969C0.881941 23.4644 1.07747 23.6045 1.29105 23.7114C1.5083 23.8208 1.73099 23.8902 1.9703 23.9326C2.20585 23.9741 2.44642 23.9882 2.68496 23.9946C2.79433 23.9971 2.9037 23.9985 3.01332 23.999C3.14301 24 3.27316 24 3.40308 24H34.597C34.7267 24 34.8568 24 34.9865 23.999C35.0958 23.9985 35.2052 23.9971 35.3151 23.9946C35.5531 23.9882 35.7936 23.9741 36.0298 23.9326C36.2688 23.8902 36.4915 23.8208 36.7088 23.7114C36.9226 23.6045 37.1175 23.4644 37.2873 23.2969C37.4566 23.1299 37.5986 22.9371 37.7075 22.7261C37.8184 22.5118 37.8886 22.2921 37.9312 22.0557C37.9738 21.8234 37.9876 21.5861 37.994 21.3512C37.997 21.2433 37.9985 21.1354 37.999 21.0275C38 20.8991 38 20.7712 38 20.6427V3.35753C38 3.22909 38 3.10096 37.999 2.97274C37.9985 2.86487 37.997 2.75697 37.994 2.64907C37.9876 2.41399 37.9738 2.1767 37.9312 1.94426C37.8886 1.70798 37.8184 1.48822 37.7075 1.27389C37.5986 1.06296 37.4566 0.870377 37.2873 0.703137C37.1175 0.535897 36.9226 0.395745 36.7088 0.288593C36.4915 0.17947 36.2688 0.110165 36.0298 0.0676751C35.7936 0.0259104 35.5531 0.0120266 35.3151 0.00566224C35.2052 0.00271788 35.0958 0.00151748 34.9865 0.000747416C34.8568 0 34.7267 0 34.597 0Z" fill="black"/>
<path d="M34.4348 1L34.8145 1.00071C34.9174 1.00142 35.0203 1.00251 35.1237 1.00527C35.3037 1.01003 35.5141 1.01958 35.7103 1.05401C35.8809 1.08408 36.0239 1.12982 36.1612 1.19824C36.2967 1.26567 36.4209 1.35402 36.5293 1.46002C36.6381 1.56672 36.7285 1.68849 36.7982 1.82264C36.8677 1.956 36.9142 2.09538 36.9447 2.2636C36.9798 2.45361 36.9895 2.66026 36.9944 2.83752C36.9972 2.93758 36.9985 3.03764 36.999 3.14007C37 3.26395 37 3.38776 37 3.51189V20.4884C37 20.6125 37 20.7361 36.999 20.8626C36.9985 20.9626 36.9972 21.0627 36.9944 21.1629C36.9895 21.3399 36.9798 21.5465 36.9443 21.7387C36.9142 21.9046 36.8678 22.044 36.7979 22.178C36.7283 22.3119 36.6381 22.4335 36.5298 22.5395C36.4207 22.6463 36.297 22.7344 36.1598 22.8024C36.0236 22.8705 35.8808 22.9162 35.7119 22.946C35.5118 22.9809 35.2925 22.9905 35.1273 22.9949C35.0234 22.9972 34.9199 22.9986 34.814 22.9991C34.6878 23 34.5611 23 34.4348 23H3.56524H3.56021C3.4354 23 3.31033 23 3.18324 22.999C3.07962 22.9986 2.97622 22.9972 2.87626 22.995C2.70732 22.9905 2.48787 22.9809 2.28933 22.9462C2.11901 22.9162 1.97622 22.8705 1.83818 22.8016C1.70234 22.7341 1.57868 22.6461 1.4696 22.5391C1.36137 22.4333 1.27143 22.3121 1.20188 22.1781C1.13227 22.0442 1.0857 21.9043 1.05507 21.7365C1.01967 21.5446 1.00995 21.3389 1.00509 21.1631C1.00232 21.0624 1.00116 20.9618 1.0005 20.8617L1 20.5663L1.00002 20.4884V3.51189L1 3.4339L1.00048 3.13914C1.00116 3.03848 1.00232 2.93785 1.00509 2.83728C1.00995 2.6613 1.01967 2.4555 1.05537 2.26202C1.08572 2.09565 1.13227 1.95582 1.20225 1.82126C1.27124 1.68827 1.36135 1.56686 1.47015 1.46035C1.57852 1.3542 1.70259 1.26595 1.83929 1.19789C1.97585 1.1298 2.11892 1.08408 2.28924 1.05408C2.48549 1.01955 2.69612 1.01003 2.87651 1.00525C2.97933 1.00251 3.08216 1.00142 3.18421 1.00073L3.56524 1H34.4348Z" fill="white"/>
<path d="M10.1529 7.49145C10.4739 7.08996 10.6917 6.55088 10.6343 6C10.1644 6.02336 9.591 6.31 9.25902 6.7118C8.96095 7.05589 8.69713 7.61754 8.7659 8.14532C9.29337 8.19108 9.82036 7.88167 10.1529 7.49145Z" fill="black"/>
<path d="M10.6282 8.24915C9.86217 8.20352 9.21088 8.6839 8.84507 8.6839C8.47905 8.6839 7.91888 8.27214 7.313 8.28324C6.52442 8.29482 5.7927 8.7407 5.39253 9.44984C4.56944 10.8685 5.17532 12.9728 5.97573 14.1282C6.36442 14.6998 6.83287 15.3292 7.45012 15.3066C8.03332 15.2837 8.26191 14.929 8.97081 14.929C9.67919 14.929 9.8851 15.3066 10.5024 15.2952C11.1427 15.2837 11.5429 14.7233 11.9316 14.1511C12.3775 13.4995 12.56 12.8703 12.5715 12.8358C12.56 12.8243 11.337 12.3552 11.3257 10.9483C11.3141 9.77033 12.2859 9.21002 12.3316 9.17527C11.7829 8.36366 10.9254 8.27214 10.6282 8.24915Z" fill="black"/>
<path d="M17.298 6.6543C18.9629 6.6543 20.1223 7.80194 20.1223 9.47282C20.1223 11.1497 18.9391 12.3033 17.2563 12.3033H15.4129V15.2348H14.0811V6.6543L17.298 6.6543ZM15.4129 11.1853H16.9411C18.1007 11.1853 18.7606 10.561 18.7606 9.47878C18.7606 8.39663 18.1007 7.7782 16.9471 7.7782H15.4129V11.1853Z" fill="black"/>
<path d="M20.4707 13.4578C20.4707 12.3636 21.3091 11.6917 22.7958 11.6084L24.5082 11.5074V11.0258C24.5082 10.33 24.0384 9.91378 23.2537 9.91378C22.5102 9.91378 22.0464 10.2705 21.9335 10.8295H20.7205C20.7919 9.69965 21.7551 8.86719 23.3012 8.86719C24.8174 8.86719 25.7866 9.66994 25.7866 10.9246V15.2356H24.5557V14.2069H24.5261C24.1634 14.9027 23.3725 15.3427 22.552 15.3427C21.327 15.3427 20.4707 14.5815 20.4707 13.4578ZM24.5082 12.8929V12.3993L22.9681 12.4944C22.201 12.548 21.767 12.8869 21.767 13.4221C21.767 13.9691 22.2189 14.3259 22.9087 14.3259C23.8065 14.3259 24.5082 13.7074 24.5082 12.8929Z" fill="black"/>
<path d="M26.9485 17.5352V16.4946C27.0435 16.5184 27.2575 16.5184 27.3646 16.5184C27.9592 16.5184 28.2804 16.2687 28.4765 15.6265C28.4765 15.6146 28.5896 15.2459 28.5896 15.24L26.3301 8.97852H27.7213L29.3032 14.0686H29.3268L30.9087 8.97852H32.2644L29.9214 15.561C29.3865 17.0774 28.768 17.5649 27.4718 17.5649C27.3646 17.5649 27.0435 17.553 26.9485 17.5352Z" fill="black"/>
</g>
<defs>
<clipPath id="clip0_16929_250039">
<rect width="38" height="24" fill="white"/>
</clipPath>
</defs>
</svg>
