<svg width="56" height="25" viewBox="0 0 56 25" fill="none" xmlns="http://www.w3.org/2000/svg">
<g clip-path="url(#clip0_16929_250052)">
<path d="M19.4092 8.68359C19.3111 8.68359 19.2278 8.75478 19.2125 8.85171L18.0774 16.05C18.0733 16.0762 18.0749 16.1031 18.0822 16.1287C18.0894 16.1543 18.1021 16.1781 18.1194 16.1983C18.1367 16.2185 18.1582 16.2348 18.1824 16.2459C18.2066 16.257 18.2329 16.2628 18.2595 16.2628H19.6056C19.7035 16.2628 19.7869 16.1915 19.8022 16.0947L20.1357 13.9809C20.1509 13.8841 20.2343 13.8128 20.3324 13.8128H21.5562C22.9861 13.8128 24.2 12.7694 24.4217 11.3557C24.6452 9.92994 23.5314 8.68669 21.9528 8.68359H19.4092ZM20.7177 10.2905H21.6969C22.503 10.2905 22.7655 10.7662 22.6825 11.2922C22.5995 11.8194 22.1918 12.2077 21.412 12.2077H20.4154L20.7177 10.2905ZM27.1595 10.7798C26.8196 10.7811 26.4285 10.8507 25.9894 11.0336C24.9822 11.4534 24.4985 12.321 24.2931 12.9536C24.2931 12.9536 23.6393 14.8834 25.1164 15.9436C25.1164 15.9436 26.4863 16.9643 28.0283 15.8807L28.0017 16.05C27.9976 16.0762 27.9992 16.1031 28.0065 16.1287C28.0137 16.1543 28.0264 16.178 28.0437 16.1982C28.0609 16.2184 28.0824 16.2347 28.1065 16.2458C28.1307 16.257 28.1569 16.2628 28.1835 16.2628H29.4614C29.5594 16.2628 29.6427 16.1915 29.6581 16.0947L30.4354 11.1653C30.4395 11.139 30.4379 11.1121 30.4307 11.0865C30.4235 11.0609 30.4108 11.0371 30.3936 11.0169C30.3763 10.9966 30.3548 10.9804 30.3307 10.9692C30.3065 10.958 30.2802 10.9522 30.2536 10.9522H28.9757C28.8777 10.9522 28.7942 11.0235 28.779 11.1203L28.7373 11.3856C28.7373 11.3856 28.1793 10.776 27.1595 10.7798ZM27.2012 12.3368C27.348 12.3368 27.4822 12.3571 27.6026 12.3958C28.154 12.5727 28.4666 13.1024 28.3761 13.6766C28.2646 14.3835 27.6848 14.9041 26.9413 14.9041C26.7947 14.9041 26.6604 14.8839 26.5399 14.8453C25.9887 14.6683 25.6741 14.1386 25.7645 13.5644C25.8761 12.8575 26.4577 12.3368 27.2012 12.3368Z" fill="#003087"/>
<path d="M37.8076 8.68164C37.7095 8.68164 37.6263 8.75283 37.6109 8.84976L36.4759 16.048C36.4717 16.0743 36.4734 16.1012 36.4806 16.1268C36.4879 16.1524 36.5006 16.1761 36.5179 16.1963C36.5352 16.2166 36.5567 16.2328 36.5808 16.244C36.605 16.2551 36.6313 16.2609 36.6579 16.2609H38.004C38.1019 16.2609 38.1853 16.1895 38.2007 16.0927L38.5341 13.9789C38.5493 13.8821 38.6327 13.8108 38.7308 13.8108H39.9546C41.3846 13.8108 42.5983 12.7675 42.8199 11.3537C43.0435 9.92798 41.9299 8.68474 40.3512 8.68164H37.8076ZM39.1161 10.2886H40.0953C40.9014 10.2886 41.164 10.7642 41.081 11.2903C40.998 11.8174 40.5904 12.2057 39.8104 12.2057H38.8138L39.1161 10.2886ZM45.5578 10.7779C45.2179 10.7791 44.8267 10.8488 44.3877 11.0317C43.3805 11.4515 42.8968 12.3191 42.6914 12.9516C42.6914 12.9516 42.0379 14.8814 43.515 15.9416C43.515 15.9416 44.8846 16.9623 46.4268 15.8788L46.4002 16.048C46.3961 16.0743 46.3977 16.1012 46.4049 16.1268C46.4122 16.1524 46.4249 16.1761 46.4422 16.1963C46.4595 16.2166 46.481 16.2328 46.5052 16.244C46.5293 16.2551 46.5556 16.2609 46.5822 16.2609H47.86C47.958 16.2609 48.0413 16.1895 48.0566 16.0927L48.8342 11.1634C48.8384 11.137 48.8368 11.1101 48.8296 11.0845C48.8223 11.0588 48.8096 11.0351 48.7923 11.0148C48.775 10.9946 48.7535 10.9783 48.7293 10.9671C48.7051 10.956 48.6788 10.9502 48.6522 10.9502H47.3743C47.2762 10.9502 47.1928 11.0215 47.1776 11.1183L47.1358 11.3837C47.1358 11.3837 46.5776 10.7741 45.5578 10.7779ZM45.5995 12.3349C45.7463 12.3349 45.8805 12.3551 46.0009 12.3938C46.5523 12.5708 46.8649 13.1005 46.7744 13.6746C46.6629 14.3816 46.0831 14.9021 45.3395 14.9021C45.193 14.9021 45.0587 14.882 44.9382 14.8433C44.387 14.6663 44.0724 14.1366 44.1628 13.5625C44.2744 12.8555 44.856 12.3349 45.5995 12.3349Z" fill="#0070E0"/>
<path d="M31.0393 10.9533C30.938 10.9533 30.8659 11.0522 30.8969 11.1485L32.2979 15.4959L31.0311 17.5446C30.9696 17.644 31.0411 17.7725 31.158 17.7725H32.6552C32.698 17.7725 32.7401 17.7614 32.7774 17.7403C32.8147 17.7193 32.8459 17.689 32.8681 17.6523L36.7807 11.1798C36.8408 11.0803 36.769 10.9531 36.6528 10.9531H35.1558C35.1125 10.9532 35.0701 10.9645 35.0325 10.9859C34.995 11.0073 34.9637 11.0382 34.9416 11.0754L33.4015 13.6756L32.6198 11.0947C32.5943 11.0107 32.5168 10.9531 32.4291 10.9531L31.0393 10.9533Z" fill="#003087"/>
<path d="M50.2884 8.68359C50.1905 8.68359 50.107 8.75492 50.0917 8.85171L48.9564 16.0497C48.9522 16.076 48.9538 16.1029 48.961 16.1285C48.9683 16.1542 48.981 16.1779 48.9983 16.1982C49.0156 16.2185 49.0371 16.2347 49.0613 16.2459C49.0854 16.257 49.1118 16.2628 49.1384 16.2628H50.4845C50.5824 16.2628 50.6659 16.1915 50.6812 16.0947L51.8163 8.89645C51.8204 8.87018 51.8188 8.84333 51.8115 8.81774C51.8043 8.79215 51.7916 8.76843 51.7743 8.74821C51.7571 8.72799 51.7356 8.71174 51.7115 8.70059C51.6873 8.68944 51.6611 8.68364 51.6345 8.68359H50.2884Z" fill="#0070E0"/>
<path d="M8.18658 8.68359C8.09987 8.68367 8.01603 8.71466 7.95012 8.771C7.88421 8.82735 7.84054 8.90535 7.82698 8.99099L7.22949 12.7805C7.25735 12.6036 7.40985 12.4731 7.58908 12.4731H9.33993C11.102 12.4731 12.5972 11.1877 12.8705 9.44569C12.8908 9.31564 12.9023 9.18436 12.9049 9.05276C12.4571 8.81795 11.9311 8.68359 11.3547 8.68359H8.18658Z" fill="#001C64"/>
<path d="M12.9037 9.04883C12.9011 9.18043 12.8895 9.31171 12.8692 9.44177C12.596 11.1838 11.1006 12.4692 9.33867 12.4692H7.58782C7.40873 12.4692 7.25609 12.5995 7.22823 12.7766L6.67884 16.2589L6.33473 18.4435C6.32801 18.4857 6.33053 18.5288 6.34211 18.57C6.3537 18.6111 6.37407 18.6492 6.40182 18.6817C6.42958 18.7142 6.46405 18.7403 6.50287 18.7582C6.54168 18.7761 6.58392 18.7854 6.62665 18.7853H8.52705C8.61376 18.7853 8.6976 18.7543 8.76351 18.6979C8.82943 18.6416 8.87308 18.5636 8.88664 18.4779L9.3872 15.3031C9.40077 15.2174 9.44447 15.1393 9.51044 15.083C9.57641 15.0266 9.66032 14.9957 9.74709 14.9957H10.866C12.6281 14.9957 14.1233 13.7102 14.3965 11.9682C14.5905 10.7319 13.9678 9.60679 12.9037 9.04883Z" fill="#0070E0"/>
<path d="M6.0274 6.15625C5.8483 6.15625 5.69566 6.28653 5.66781 6.46337L4.17652 15.9198C4.14824 16.0993 4.28696 16.2616 4.46873 16.2616H6.68019L7.22929 12.7794L7.82678 8.98982C7.84034 8.90418 7.884 8.82617 7.94991 8.76983C8.01583 8.71349 8.09967 8.68249 8.18638 8.68242H11.3545C11.931 8.68242 12.4569 8.81692 12.9047 9.05158C12.9354 7.46562 11.6267 6.15625 9.82749 6.15625H6.0274Z" fill="#003087"/>
</g>
<defs>
<clipPath id="clip0_16929_250052">
<rect width="47.646" height="12.6316" fill="white" transform="translate(4.17676 6.1582)"/>
</clipPath>
</defs>
</svg>
