<svg width="40" height="24" viewBox="0 0 40 24" fill="none" xmlns="http://www.w3.org/2000/svg">
<g clip-path="url(#clip0_16929_250005)">
<path opacity="0.07" d="M36.7541 0H3.91196C2.16722 0 0.833008 1.3 0.833008 3V21C0.833008 22.7 2.26985 24 3.91196 24H36.7541C38.4988 24 39.833 22.7 39.833 21V3C39.833 1.3 38.3962 0 36.7541 0Z" fill="black"/>
<path d="M36.7775 1C37.908 1 38.833 1.9 38.833 3V21C38.833 22.1 37.908 23 36.7775 23H3.88856C2.75801 23 1.83301 22.1 1.83301 21V3C1.83301 1.9 2.75801 1 3.88856 1H36.7775Z" fill="white"/>
<path d="M17.0845 8.12373L13.5496 14.8941H11.2434L9.50388 9.49103C9.39828 9.15824 9.30645 9.03632 8.98526 8.89611C8.46087 8.66774 7.59491 8.45347 6.83301 8.32049L6.88476 8.12373H10.5971C11.0703 8.12373 11.4957 8.3766 11.6031 8.81404L12.5218 12.7317L14.7923 8.12361H17.0845V8.12373ZM26.1208 12.6836C26.13 10.8967 23.0428 10.7983 23.064 10C23.0706 9.75711 23.3588 9.49882 23.9895 9.4329C24.3021 9.40005 25.1634 9.37498 26.1403 9.73589L26.5235 8.30017C25.9985 8.14721 25.3231 8 24.4828 8C22.3263 8 20.8087 8.92027 20.7959 10.238C20.782 11.2127 21.8791 11.7566 22.7057 12.0805C23.556 12.4121 23.8414 12.6253 23.8381 12.9219C23.8321 13.3761 23.1599 13.5766 22.5317 13.5845C21.4352 13.598 20.7988 13.3463 20.2916 13.157L19.8962 14.6402C20.4059 14.828 21.3468 14.9918 22.3223 15C24.6144 15 26.1137 14.0911 26.1208 12.6836ZM31.8152 14.8941H33.833L32.0717 8.12373H30.2093C29.7905 8.12373 29.4372 8.31948 29.2809 8.62044L26.007 14.8941H28.2979L28.7527 13.8829H31.5518L31.8152 14.8941ZM29.3808 12.4952L30.5292 9.9532L31.1901 12.4952H29.3808ZM20.2017 8.12373L18.3977 14.8941H16.216L18.0208 8.12373H20.2017Z" fill="#1434CB"/>
</g>
<defs>
<clipPath id="clip0_16929_250005">
<rect width="39" height="24" fill="white" transform="translate(0.833008)"/>
</clipPath>
</defs>
</svg>
