<svg width="40" height="24" viewBox="0 0 40 24" fill="none" xmlns="http://www.w3.org/2000/svg">
<g clip-path="url(#clip0_16929_250015)">
<path opacity="0.07" d="M36.4211 0H3.57895C1.83421 0 0.5 1.3 0.5 3V21C0.5 22.7 1.93684 24 3.57895 24H36.4211C38.1658 24 39.5 22.7 39.5 21V3C39.5 1.3 38.0632 0 36.4211 0Z" fill="black"/>
<path d="M36.4444 1C37.575 1 38.5 1.9 38.5 3V21C38.5 22.1 37.575 23 36.4444 23H3.55556C2.425 23 1.5 22.1 1.5 21V3C1.5 1.9 2.425 1 3.55556 1H36.4444Z" fill="#006FCF"/>
<path d="M9.63447 10.3625L10.4339 12.3167H8.84122L9.63447 10.3625ZM26.2381 10.4437H23.1632V11.3052H26.1885V12.5958H23.1694V13.5562H26.2443V14.326L28.3896 11.9875L26.2443 9.55L26.2381 10.4437ZM11.7126 8.00625H15.839L16.7552 10.0219L17.6042 8H28.3152L29.4287 9.23958L30.5804 8H35.5L31.8653 12.0125L35.4628 16H30.4698L29.3564 14.7604L28.1944 16H10.7283L10.2181 14.7604H9.05089L8.53962 16H4.5L7.89406 8H11.4369L11.7126 8.00625ZM20.6605 9.12917H18.3479L16.7986 12.8125L15.1201 9.12917H12.8251V14.1396L10.6973 9.12917H8.63877L6.17844 14.8708H7.78458L8.29482 13.6312H10.9762L11.4864 14.8708H14.2959V10.7719L16.1045 14.8771H17.3336L19.1308 10.7844V14.8781H20.6368L20.6616 9.12813L20.6605 9.12917ZM30.3077 12.0125L32.9219 9.12917H31.04L29.3864 10.9271L27.7874 9.12917H21.6996V14.8771H27.7007L29.3678 13.0667L30.9667 14.8771H32.9033L30.3077 12.0125Z" fill="white"/>
</g>
<defs>
<clipPath id="clip0_16929_250015">
<rect width="39" height="24" fill="white" transform="translate(0.5)"/>
</clipPath>
</defs>
</svg>
