<svg width="40" height="24" viewBox="0 0 40 24" fill="none" xmlns="http://www.w3.org/2000/svg">
<rect x="0.333008" width="39" height="24" rx="3.04179" fill="black"/>
<g clip-path="url(#clip0_16929_250020)">
<path d="M34.333 18H32.333V22H34.333V18Z" fill="#FF5F00"/>
<path d="M32.3866 19.4994C32.3866 18.7359 32.7364 18.0071 33.3262 17.5351C32.2563 16.6813 30.6996 16.8687 29.8561 17.9585C29.0194 19.0413 29.2046 20.61 30.2813 21.4638C31.1797 22.1787 32.4346 22.1787 33.333 21.4638C32.7364 20.9918 32.3866 20.263 32.3866 19.4994Z" fill="#EB001B"/>
<path d="M37.333 19.5003C37.333 20.8821 36.2265 22 34.8588 22C34.3021 22 33.766 21.8125 33.333 21.4653C34.4052 20.6113 34.5907 19.042 33.7454 17.9519C33.6217 17.7991 33.4842 17.6533 33.333 17.5352C34.4052 16.6812 35.9653 16.8686 36.8038 17.9588C37.1474 18.3962 37.333 18.9379 37.333 19.5003Z" fill="#F79E1B"/>
</g>
<g clip-path="url(#clip1_16929_250020)">
<path d="M24.5429 3.82533C24.5834 3.8329 24.6716 3.83375 24.7203 3.77246C24.7668 3.71372 24.8584 3.67316 24.9414 3.60458C25.0245 3.53585 25.2032 3.36401 25.2787 3.18183C25.354 2.99965 25.472 2.85505 25.5062 2.82093C25.5406 2.78661 25.5044 2.81895 25.4514 2.84507C25.398 2.87133 25.4646 2.822 25.4519 2.81287C25.4447 2.80692 25.3355 2.8806 25.2797 2.93687C25.2237 2.99342 24.6644 3.5028 24.4837 3.57846C24.4837 3.57846 24.443 3.61342 24.3899 3.5953C24.3367 3.57697 24.3431 3.63027 24.3329 3.65844C24.3227 3.6864 24.5025 3.81797 24.5429 3.82533Z" fill="white"/>
<path d="M14.8611 4.45815C14.8152 4.45801 14.5138 4.45673 14.3873 4.4573C14.2609 4.45793 13.8709 4.43564 13.7633 4.49828C13.7633 4.49828 13.6466 4.54846 13.6179 4.63424C13.5886 4.72009 13.5827 4.75591 13.6106 4.83419C13.6381 4.91254 13.5559 5.05232 13.5185 5.13067C13.4809 5.20923 13.0302 5.79725 12.8716 5.98106C12.7133 6.16451 12.466 6.49723 12.1401 6.60021C12.1401 6.60021 11.7252 5.04496 13.8516 3.19329C13.8516 3.19329 13.9229 3.12683 13.9592 3.13108C13.9959 3.13568 14.0493 3.1722 14.1113 3.1957C14.1739 3.21941 14.3249 3.31977 14.454 3.22592C14.5833 3.13249 14.6617 2.87713 14.4995 2.68709C14.3372 2.49713 14.0509 2.4432 13.8403 2.36959C13.6298 2.29633 13.3034 2.3347 13.0431 2.38091C12.7828 2.42706 12.4282 2.81732 12.0873 3.39727C11.7466 3.977 11.7887 4.04651 11.7095 4.26217C11.6306 4.47782 11.0721 5.71019 11.4815 6.60262C11.8913 7.49448 12.1829 7.21539 12.5431 7.12283C12.9039 7.03032 13.2812 6.64608 13.5188 6.31286C13.5188 6.31286 13.4919 6.64296 13.4239 7.03655C13.3555 7.43007 13.2645 7.95481 13.3108 8.29418C13.3577 8.63278 13.3989 8.89565 13.4471 8.90463C13.4951 8.91342 13.6085 8.84738 13.7088 8.56994C13.8089 8.29236 13.8412 8.30289 13.8671 8.10621C13.8937 7.9098 13.9158 7.81373 13.848 7.70612C13.848 7.70612 13.8328 7.36399 13.9406 7.08036C13.9406 7.08036 14.027 6.88367 14.0626 6.72039C14.0983 6.55647 14.1846 6.49313 14.233 6.26784C14.233 6.26784 14.3284 5.83589 14.3749 5.64579C14.4213 5.45554 14.3976 5.42949 14.5594 5.21263C14.721 4.99605 14.7413 4.97171 14.7949 4.80623C14.7949 4.80623 14.8314 4.70438 14.8486 4.64011C14.8656 4.57634 14.8737 4.53855 14.8974 4.50663C14.9213 4.47457 14.9076 4.45829 14.8611 4.45815Z" fill="white"/>
<path d="M27.5359 4.8918C27.5359 4.8918 27.3522 4.59524 27.4217 4.48703C27.4904 4.37867 27.6339 4.40386 27.6841 4.48405C27.7342 4.56445 27.7415 4.66758 27.5359 4.8918ZM20.531 5.25135C20.6964 4.99096 20.8976 4.69914 20.8976 4.69914C20.8976 4.69914 21.0282 4.70495 21.0931 4.67975C21.1581 4.65434 21.2745 4.59333 21.2671 4.65363C21.2594 4.71415 20.8936 5.30556 20.7424 5.4859C20.5913 5.66631 20.3623 5.83879 20.3623 5.83879C20.3623 5.83879 20.3657 5.51216 20.531 5.25135ZM15.9872 4.47273C15.9872 4.47273 15.8698 4.78514 15.6091 5.13095C15.3477 5.47698 15.079 5.67296 15.0683 5.42439C15.0573 5.17583 15.2483 4.80368 15.3488 4.68378C15.4495 4.5641 15.8358 4.05436 16.1019 4.03087C16.1019 4.03087 16.0126 4.31263 15.9872 4.47273ZM25.7296 5.13916C25.7483 5.02953 25.7636 4.94814 25.8404 4.96604C25.9172 4.98395 25.9095 5.13916 25.8669 5.24582C25.7989 5.41449 25.6198 5.60431 25.6198 5.60431C25.6198 5.60431 25.7103 5.24858 25.7296 5.13916ZM28.9272 6.7509C28.8908 6.40614 28.5047 5.96747 28.1641 5.71069C27.7821 5.42305 27.5989 5.01028 27.5989 5.01028C27.6562 4.9504 27.9426 4.64861 27.9821 4.47202C28.022 4.29529 27.9 4.26394 27.7874 4.23463C27.6755 4.20498 27.5315 4.20009 27.4757 4.18261C27.4201 4.16513 27.42 4.21269 27.2954 4.30272C27.1712 4.39282 27.1348 4.36048 27.1102 4.6283C27.0857 4.8964 27.2695 5.2149 27.2695 5.2149C27.1576 5.36098 26.8113 5.74735 26.4208 6.13669C26.0304 6.52604 25.7567 6.71282 25.7567 6.71282L25.7442 6.71876C25.6137 6.79924 25.613 6.67736 25.6006 6.57735C25.5878 6.47692 25.5949 6.36913 25.5675 6.26048C25.5397 6.15156 25.5837 5.84658 25.5837 5.84658C25.5837 5.84658 25.6201 5.80751 25.6391 5.77729C25.6579 5.74693 25.7137 5.69929 25.7282 5.67714C25.7428 5.65527 25.7448 5.65909 25.7354 5.67707C25.7252 5.69625 25.7211 5.70127 25.7069 5.72067C25.6806 5.75669 25.6616 5.79753 25.6616 5.79753C25.6616 5.79753 25.6864 5.77729 25.718 5.74473C25.7491 5.71225 25.7602 5.69193 25.7783 5.67176C25.7966 5.65102 25.7932 5.65831 25.7882 5.67742C25.7833 5.69675 25.7527 5.72888 25.7375 5.74933C25.7163 5.77828 25.6695 5.8194 25.6695 5.8194C25.6695 5.8194 25.7298 5.79329 25.7459 5.77304C25.7565 5.75981 26.08 5.42001 26.1843 5.0594C26.2879 4.69844 26.0381 4.66715 25.9701 4.66128C25.9018 4.65583 25.8945 4.63785 25.7077 4.65059C25.5207 4.66361 25.4226 4.92613 25.2257 5.37414C25.0284 5.82259 25.0429 6.20974 25.0429 6.20974C25.0257 6.23062 25.0095 6.24944 24.9927 6.26891C24.9954 6.26756 24.9997 6.26629 25.0027 6.26466C25.0008 6.26685 24.9999 6.26947 24.9985 6.27117C25.0009 6.27004 25.0033 6.27004 25.0051 6.26954C25.0244 6.24796 25.0445 6.22835 25.0445 6.22835C25.0414 6.2505 25.0347 6.25829 25.0179 6.27995C25.0011 6.30196 24.9998 6.30486 24.9799 6.32716C24.9595 6.34945 24.9358 6.37557 24.9358 6.37557C24.9358 6.37557 24.936 6.38746 24.935 6.36332C24.9341 6.34768 24.9404 6.34471 24.9594 6.32326C24.9605 6.31895 24.9627 6.31463 24.9654 6.31074C24.9623 6.31279 24.9589 6.31385 24.9561 6.31647C24.9559 6.31604 24.9568 6.31265 24.9571 6.31229C24.9571 6.31229 24.9563 6.31251 24.9552 6.31286C24.4599 6.88077 24.1019 7.03025 24.0413 7.04455C23.9768 7.05977 23.9894 6.93994 23.9892 6.88099C23.9887 6.82182 24.0461 6.67616 24.0599 6.60021C24.0734 6.52427 24.1049 6.29623 24.1881 6.16961C24.2717 6.04334 24.2953 5.96166 24.3737 5.75995C24.4521 5.5588 24.7292 4.60182 24.7365 4.5532C24.7436 4.50451 24.7214 4.41462 24.6921 4.37336C24.662 4.33153 24.6409 4.28397 24.59 4.24914C24.5393 4.2146 24.4881 4.20838 24.3595 4.19224C24.2312 4.17582 24.2274 4.1819 24.133 4.18934C24.0385 4.19648 24.0396 4.29366 24.0396 4.29366C23.9942 4.33832 23.979 4.32933 24.0014 4.5704C24.0232 4.81168 23.9291 5.11078 23.6057 5.72258C23.2823 6.33459 22.9519 6.70985 22.9519 6.70985C22.9519 6.70985 22.9103 6.30635 22.9209 6.15588C22.9311 6.00526 23.0027 5.73546 22.9569 5.45115C22.9112 5.16691 22.6124 5.03279 22.3894 4.89293C22.1666 4.753 22.3311 4.53105 22.3601 4.4367C22.3887 4.3425 22.3009 4.33733 22.2066 4.34448C22.1124 4.35184 22.1197 4.35198 22.0761 4.373C22.0324 4.39395 22.1197 4.35198 22.0265 4.50507C21.9334 4.65795 22.0434 4.91317 22.0434 4.91317C22.0434 4.91317 21.8779 5.1633 21.7341 5.38568C21.5904 5.60842 21.0666 6.39404 20.9515 6.51245C20.8363 6.63065 20.6017 6.81269 20.4746 6.69491C20.3468 6.57728 20.3771 6.18942 20.3771 6.18942C20.3771 6.18942 20.5284 5.98778 20.6793 5.83476C20.8303 5.68153 20.9027 5.55618 20.9027 5.55618C20.9027 5.55618 20.9695 5.55342 21.3417 5.11064C21.7141 4.66828 21.6638 4.47903 21.6564 4.34759C21.6487 4.21588 21.4886 4.13371 21.3066 4.04446C21.1254 3.95528 21.0561 3.98373 21.0025 3.99074C20.9483 3.99774 20.9369 3.94834 20.9007 3.97764C20.8644 4.00631 20.8429 4.01898 20.7926 4.04014C20.7423 4.06144 20.6772 4.15182 20.6189 4.16598C20.5607 4.17999 20.4831 4.19153 20.5329 4.26316C20.5829 4.33457 20.5336 4.38093 20.5336 4.38093C19.7891 5.34675 19.9431 6.35823 19.9431 6.35823C19.8546 6.42766 19.6252 6.59639 19.5214 6.66221C19.4992 6.67587 19.4161 6.71459 19.2932 6.69994C19.1492 6.68239 18.8723 6.61494 18.7052 6.37139C18.5001 6.073 18.5455 5.05076 18.643 4.41129C18.7412 3.77147 19.1804 2.02144 19.2369 1.81519C19.2935 1.60888 19.264 1.43052 19.264 1.43052C19.2749 1.31784 19.3727 1.07833 19.3998 1.0462C19.4269 1.01428 19.4333 0.995878 19.3877 0.982148C19.3421 0.967851 19.3167 0.919085 19.2925 0.887235C19.2683 0.855173 19.1661 0.866215 19.1335 0.877752C19.1004 0.889359 18.9699 0.821343 18.8828 0.801171C18.7961 0.781141 18.7232 0.77831 18.7016 0.801808C18.6804 0.825447 18.6589 0.871452 18.6463 0.858146C18.6336 0.844982 18.6104 0.803365 18.6003 0.830331C18.5901 0.857368 18.6058 0.858429 18.5947 0.891128C18.5834 0.923757 18.5361 0.969125 18.5144 0.96226C18.4925 0.955253 18.4982 0.903868 18.486 0.950581C18.4744 0.997153 18.4711 0.990075 18.4564 1.00437C18.4416 1.01853 18.4296 0.99425 18.4205 1.01117C18.4116 1.02815 18.4135 1.04571 18.3915 1.06743C18.3696 1.08987 18.3918 1.1438 18.3918 1.1438C18.4028 1.27941 18.2956 1.48622 18.1395 2.02646C17.9835 2.56699 17.8314 3.34497 17.8314 3.34497C17.6873 4.01487 17.3992 4.60204 17.3207 4.78733C17.2421 4.97241 17.0807 5.24108 16.9893 5.37372C16.8975 5.50635 16.8667 5.70184 16.7461 5.74225C16.6258 5.78309 16.5595 5.90433 16.5595 5.90433C16.5595 5.90433 16.533 5.45327 16.5976 5.03569C16.6623 4.6174 16.7798 4.26974 16.8218 4.15904C16.864 4.04863 16.8979 3.92074 16.9196 3.8552C16.9415 3.78959 16.9632 3.75547 16.9269 3.7438C16.8904 3.73219 16.7565 3.67932 16.7429 3.66346C16.7296 3.6474 16.6834 3.62475 16.6335 3.6244C16.5838 3.6239 16.5196 3.59686 16.4769 3.59078C16.4343 3.58469 16.4113 3.56926 16.3582 3.54371C16.3215 3.52587 16.2972 3.52701 16.2972 3.52701C16.2972 3.52701 16.2882 3.52842 16.2775 3.54859C16.2668 3.56926 16.205 3.69121 16.1763 3.75257C16.1763 3.75257 16.054 3.75894 15.9458 3.8346C15.8377 3.91005 15.5851 4.03809 15.3634 4.35807C15.1426 4.67798 15.0624 4.79129 15.0112 4.93865C14.9596 5.08629 14.9218 5.1868 14.8727 5.40755C14.8233 5.62816 14.8328 5.77878 14.8707 5.83363C14.9087 5.88834 14.9167 5.9192 14.9779 5.96343C15.0397 6.00739 15.0957 6.06493 15.1649 6.01744C15.2344 5.97002 15.4036 5.81261 15.5044 5.77134C15.6052 5.72959 15.7295 5.51251 15.8588 5.46382C15.8588 5.46382 15.8701 5.71026 15.8581 5.95798C15.8464 6.20577 15.8241 6.37734 15.9103 6.44918C15.9962 6.52109 16.1097 6.69017 16.1908 6.68062C16.272 6.67127 16.3067 6.61465 16.3767 6.63935C16.4476 6.66413 16.5089 6.6579 16.6545 6.42525C16.7999 6.19247 17.3653 5.32177 17.6054 4.68973C17.6054 4.68973 17.5998 6.11164 18.1259 6.62399C18.6521 7.13628 18.9537 7.25567 19.6485 6.81C19.6485 6.81 19.6705 6.83788 19.6996 6.82352C19.7284 6.80943 19.7703 6.70284 19.988 6.59306C19.988 6.59306 20.0857 6.94143 20.3158 7.0643C20.5465 7.18691 20.7753 7.19139 20.9164 7.09544C21.049 7.0052 21.2249 6.80044 21.4513 6.5029C21.6068 6.29849 21.6137 6.1069 21.7807 5.86378C21.9475 5.62045 21.9089 5.52341 21.9662 5.41215C22.0239 5.30131 22.1454 5.04446 22.1454 5.04446C22.1454 5.04446 22.2793 5.17809 22.3856 5.23712C22.4922 5.29601 22.4698 5.57883 22.4176 5.7562C22.3656 5.93392 22.3354 6.58054 22.5762 6.89875C22.8168 7.21696 23.0499 7.19424 23.201 7.04774C23.3515 6.90165 23.4572 6.69208 23.5449 6.48485C23.5479 7.74101 24.1693 7.3892 24.411 7.20792C24.6528 7.02672 25.076 6.51514 25.076 6.51514C25.1623 7.12071 25.5253 7.21585 25.7255 7.1954C25.926 7.17516 26.0945 6.85374 26.2119 6.6804C26.329 6.50707 26.6207 6.20726 26.695 6.13528C26.77 6.0633 26.8372 5.95006 26.9115 5.84219C26.9856 5.73461 27.345 5.3573 27.345 5.3573C27.345 5.3573 27.4661 5.52801 27.5212 5.60665C27.5764 5.68528 27.8469 5.91516 27.9721 6.03959C28.0975 6.16402 28.1987 6.37783 28.1987 6.37783C28.1987 6.37783 28.1422 6.40204 28.1119 6.39616C28.0812 6.39057 28.0335 6.36714 27.9991 6.33749C27.9648 6.30748 27.8929 6.31413 27.868 6.32602C27.8435 6.33791 27.7992 6.31442 27.7746 6.29701C27.7498 6.27938 27.7307 6.25511 27.6932 6.25539C27.6551 6.25581 27.6432 6.23161 27.626 6.21851C27.6089 6.20507 27.6225 6.1592 27.6113 6.17258C27.6001 6.18532 27.5869 6.20252 27.5617 6.20266C27.5367 6.20301 27.5181 6.22085 27.4998 6.23246C27.4813 6.24421 27.4745 6.22679 27.4516 6.20712C27.4293 6.18709 27.431 6.18532 27.4157 6.21986C27.4004 6.25454 27.3952 6.19947 27.3869 6.18864C27.3783 6.17782 27.3874 6.21526 27.3627 6.20358C27.3376 6.19197 27.325 6.17385 27.325 6.17385C27.3531 6.895 27.9384 7.13522 28.2102 7.21143C28.4008 7.26479 28.6375 7.25008 28.7876 7.11342L28.7883 7.11363C28.8088 7.13104 28.7725 7.19485 28.7924 7.1793C28.8124 7.1636 28.8375 7.0822 28.8554 7.09657C28.8734 7.11059 28.8372 7.23198 28.8372 7.23198C28.8859 7.16609 28.8886 7.03542 28.8885 7.01079C28.8883 6.98609 28.9072 6.99925 28.9262 7.02289C28.9458 7.04653 28.9489 7.04016 28.9489 7.04016C29.0074 6.97448 28.9273 6.75026 28.9273 6.75026L28.9272 6.7509Z" fill="white"/>
<path d="M22.1022 13.6029C22.0667 13.6029 22.0667 13.6029 22.0667 13.6029C22.0667 13.6029 22.0524 13.6506 22.0667 13.6914C22.0809 13.7321 22.0452 13.7861 22.0452 13.8271C22.0452 13.868 22.0577 13.8964 22.0577 13.8964C22.0577 13.8964 22.0597 13.8546 22.0809 13.8137C22.1022 13.7727 22.1165 13.7662 22.1093 13.6981C22.1022 13.6299 22.1378 13.6029 22.1022 13.6029Z" fill="white"/>
<path d="M22.2267 13.2259C22.2266 13.2244 22.2273 13.2226 22.227 13.2209C22.2259 13.2154 22.2236 13.2101 22.2234 13.2044C22.2231 13.198 22.2222 13.192 22.2222 13.1856C22.2222 13.1766 22.2221 13.1677 22.2222 13.1588C22.2222 13.1559 22.2217 13.1524 22.2202 13.1499C22.2182 13.1468 22.2151 13.1453 22.213 13.1491C22.2122 13.1503 22.2124 13.1516 22.212 13.1529C22.2114 13.1548 22.2102 13.1557 22.2088 13.1571C22.2054 13.1605 22.2031 13.1644 22.1996 13.1675C22.1961 13.1707 22.1951 13.1743 22.1939 13.1787C22.1911 13.19 22.1917 13.2019 22.196 13.2127C22.1969 13.2154 22.1982 13.218 22.1994 13.2206C22.2011 13.2242 22.2017 13.2279 22.2029 13.2316C22.2037 13.2346 22.2051 13.2375 22.2058 13.2406C22.2063 13.2431 22.206 13.2458 22.206 13.2484C22.206 13.2518 22.2054 13.26 22.2094 13.2617C22.2113 13.2624 22.2146 13.263 22.2166 13.2628C22.221 13.2625 22.2233 13.2604 22.2254 13.2571C22.2289 13.2521 22.2292 13.246 22.2292 13.2401C22.2292 13.2367 22.2287 13.2337 22.228 13.2304C22.2277 13.2288 22.227 13.2276 22.2267 13.2259Z" fill="white"/>
<path d="M22.1587 13.1429C22.1475 13.144 22.1423 13.1503 22.1409 13.1606C22.1401 13.1666 22.1396 13.1728 22.1394 13.1788C22.1394 13.1859 22.1381 13.1952 22.1428 13.2012C22.1444 13.2033 22.1492 13.2055 22.1524 13.2046C22.1557 13.2034 22.1585 13.1988 22.1597 13.1959C22.1609 13.1927 22.1611 13.1892 22.1624 13.1861C22.1636 13.1833 22.1659 13.181 22.1683 13.179C22.1686 13.1784 22.169 13.1778 22.1717 13.1768C22.1729 13.1761 22.1748 13.1749 22.1756 13.1738C22.1772 13.1717 22.1783 13.1685 22.1789 13.166C22.1809 13.16 22.1811 13.1491 22.1755 13.1446C22.1714 13.1412 22.1637 13.1424 22.1587 13.1429Z" fill="white"/>
<path d="M22.2006 13.485C22.1949 13.4938 22.19 13.5033 22.1871 13.5133C22.1865 13.5155 22.1851 13.5166 22.185 13.5191C22.1848 13.5218 22.1848 13.524 22.1838 13.5266C22.1837 13.5274 22.1834 13.5281 22.183 13.5287C22.1825 13.5302 22.1832 13.5319 22.1828 13.5333C22.1823 13.5351 22.1814 13.5354 22.1815 13.5376C22.1816 13.5398 22.1809 13.5402 22.1803 13.542C22.18 13.5436 22.1804 13.5459 22.1804 13.5475C22.1804 13.5495 22.1804 13.5512 22.1804 13.5531C22.1804 13.5558 22.18 13.556 22.1826 13.5564C22.1867 13.5569 22.1894 13.5548 22.1917 13.5517C22.1938 13.5488 22.1951 13.5436 22.1955 13.5401C22.1957 13.5381 22.1951 13.5362 22.1957 13.5343C22.1962 13.5337 22.1965 13.5329 22.1967 13.5322C22.197 13.5307 22.1964 13.5294 22.1968 13.5279C22.1977 13.525 22.2005 13.5224 22.2021 13.5199C22.204 13.5167 22.2067 13.5146 22.2079 13.5111C22.2091 13.5072 22.2093 13.5041 22.2093 13.5C22.2093 13.4981 22.2093 13.4964 22.2093 13.4945C22.2093 13.4923 22.2102 13.4911 22.2105 13.4889C22.2116 13.4829 22.2039 13.4796 22.2006 13.485Z" fill="white"/>
<path d="M17.3664 12.0667C17.1578 12.1534 17.0256 12.1905 17.061 11.8499C17.061 11.8499 17.2632 9.97431 18.049 8.57992C18.1696 8.3659 18.1627 8.12445 18.1484 7.94088C18.134 7.75727 17.8903 7.61812 17.8216 7.59435C17.7728 7.57757 17.6218 7.5526 17.5388 7.54375C17.4667 7.53623 17.3641 7.54486 17.3477 7.53236C17.3313 7.51956 17.2884 7.5179 17.2726 7.54328C17.2565 7.56858 17.2244 7.5942 17.2029 7.60106C17.1816 7.60789 17.1336 7.6166 17.1109 7.65539C17.0741 7.71829 17.0252 7.85956 16.6486 8.8583C16.2719 9.85736 15.9861 10.9005 16.0228 11.5569C16.0597 12.2133 16.4823 12.5754 16.9399 12.6922C17.3973 12.809 18.0278 12.2096 18.3834 11.8967C18.7388 11.584 18.9731 11.3804 18.9731 11.3804C18.9731 11.3804 18.4257 11.5846 17.9992 11.7814C17.9992 11.7814 17.5751 11.9798 17.3664 12.0667Z" fill="white"/>
<path d="M21.1348 12.9484C21.1387 12.9146 21.1533 12.9002 21.1498 12.8628C21.1464 12.8256 21.147 12.7775 21.1324 12.7778C21.1324 12.7778 21.1155 12.7868 21.117 12.8129C21.1182 12.8391 21.1251 12.849 21.1251 12.8728C21.1251 12.8968 21.1268 13.019 21.1348 12.9484Z" fill="white"/>
<path d="M30.8324 10.2316C30.2943 11.082 29.9866 11.4075 29.9866 11.4075C29.9866 11.4075 30.0006 11.0605 30.0006 10.8773C30.0006 10.6942 30.0078 10.6259 30.0788 10.4151C30.1499 10.2044 30.2208 9.95993 30.2777 9.66733C30.3346 9.37475 30.3918 9.1508 30.5338 8.72946C30.5548 8.66739 30.5782 8.59039 30.6031 8.50424C30.8593 8.4732 31.1038 8.42902 31.1993 8.40538C31.3171 8.37616 31.6261 8.2998 31.8541 8.24685C31.556 8.92777 31.1582 9.71638 30.8324 10.2316ZM34.4582 9.25951C34.5939 8.83457 35.0127 8.32874 35.0127 8.32874C35.077 8.23375 35.1592 8.18066 35.1833 8.20602C35.2076 8.23126 35.3555 8.2552 35.4109 8.3012C35.4663 8.34748 35.4808 8.35556 35.3681 8.54594C35.2556 8.73648 34.8775 9.22562 34.8775 9.22562C34.7702 9.34403 34.5831 9.53781 34.356 9.76819C34.3667 9.59039 34.4033 9.43129 34.4582 9.25951ZM26.4896 12.1977C26.4228 12.6349 25.9406 13.5723 25.6155 13.4007C25.2904 13.229 25.5219 12.2705 26.4542 11.6334C26.4945 11.6059 26.5332 11.5795 26.5708 11.5535C26.5417 11.8078 26.5124 12.0494 26.4896 12.1977ZM23.6949 9.91207C23.6826 9.95916 23.6711 10.009 23.6602 10.0602C23.4776 10.249 23.3282 10.359 23.251 10.4099C23.1583 10.4712 23.1651 10.3629 23.2042 10.2247C23.2486 10.0679 23.3273 9.82205 23.5595 9.62656C23.6947 9.5129 23.7965 9.47016 23.8583 9.45401C23.7959 9.59783 23.7344 9.75893 23.6949 9.91207ZM28.1452 9.76266C28.421 9.29852 28.6867 9.22938 28.7172 9.34599C28.754 9.48644 28.2019 10.0412 28.0315 10.2247C27.9985 10.2601 27.9518 10.3012 27.8983 10.3445C27.9406 10.1676 28.0163 9.97981 28.1452 9.76266ZM33.9687 10.8116C34.2388 11.8954 35.0474 12.4039 35.6352 12.6093C36.3254 12.8503 37.2916 12.5538 37.4467 12.4692C37.6019 12.3847 37.6408 12.3503 37.4995 12.3512C37.3578 12.3526 36.5796 12.4908 36.2908 12.46C36.0019 12.4293 35.8478 12.426 35.5038 12.1868C35.1598 11.9477 34.8213 11.5882 34.4913 10.8758C34.4486 10.7841 34.3936 10.5945 34.365 10.4388L34.412 10.3953C34.4824 10.3295 34.5398 10.2754 34.5789 10.2383C34.7881 10.0403 35.2086 9.76983 35.5177 9.49075C35.8266 9.21152 36.1407 8.91279 36.2281 8.79728C36.3153 8.68176 36.4914 8.42379 36.541 8.37602C36.5907 8.3283 36.5695 8.28769 36.5627 8.2401C36.5559 8.1925 36.5695 8.15185 36.541 8.12445C36.5125 8.09727 36.5695 8.04292 36.5268 7.94088C36.484 7.83889 36.3277 7.82534 36.2312 7.82506C36.1346 7.82465 35.8376 7.76404 35.7593 7.75077C35.6808 7.73742 35.5528 7.72354 35.5102 7.71677C35.4677 7.70991 35.4677 7.68276 35.4677 7.68276C35.4387 7.71608 35.2899 7.6894 35.1974 7.6894C35.1048 7.6894 34.9884 7.67433 34.9343 7.75077C34.8805 7.82713 34.7353 7.94088 34.5849 8.08937C34.4346 8.23778 34.3658 8.43037 34.3658 8.43037C34.2378 8.64121 33.8062 9.14564 33.8746 10.1791C33.876 10.2019 33.8782 10.2241 33.8801 10.2466C33.2023 10.9224 32.4327 11.6706 32.2184 11.8628C31.8699 12.1756 31.8057 12.2762 31.721 12.1822C31.6366 12.0883 31.9983 10.8298 32.1403 10.388C32.2825 9.94627 32.4535 9.27989 32.6525 8.49145C32.6853 8.3615 32.7292 8.20438 32.7791 8.03325C33.1043 7.9568 33.4992 7.86358 33.8607 7.77801C34.6638 7.58757 36.456 7.07782 36.9322 6.93506C36.9322 6.93506 37.5361 6.75854 37.7211 6.67672C37.9059 6.59512 38.1128 6.53411 38.1836 6.50693C38.1836 6.50693 38.2265 6.49426 38.2467 6.48081C38.267 6.46737 38.2487 6.45314 38.2624 6.4479C38.2761 6.44295 38.3192 6.42617 38.331 6.41145C38.3427 6.39694 38.3003 6.41867 38.2817 6.42511C38.2632 6.43169 38.2398 6.41825 38.2331 6.4048C38.2259 6.39156 38.2268 6.38441 38.2061 6.39128C38.1855 6.39807 38.0695 6.39638 38.031 6.39156C38.031 6.39156 37.7641 6.42539 37.2947 6.50693C37.2947 6.50693 33.5356 7.26266 33.2283 7.32929C33.2283 7.32929 33.1305 7.35044 32.9768 7.38367C33.2051 6.65542 33.4494 5.93165 33.4494 5.93165C33.4991 5.84906 33.5695 5.65039 33.5834 5.60473C33.5977 5.55901 33.6052 5.51464 33.5834 5.48732C33.562 5.46021 33.5624 5.41944 33.5438 5.40578C33.5253 5.39205 33.4599 5.37988 33.4059 5.37874C33.352 5.3774 33.2867 5.35461 33.2423 5.36466C33.1981 5.37499 33.1481 5.37825 33.0858 5.39247C33.0238 5.40649 32.9581 5.39913 32.9252 5.39899C32.8927 5.3987 32.8051 5.37153 32.7734 5.39913C32.7413 5.42673 32.7565 5.45207 32.7162 5.46021C32.6759 5.46814 32.6738 5.48732 32.6738 5.48732C32.6555 5.58633 32.6451 5.64366 32.6451 5.64366C32.6451 5.64366 32.664 5.80496 32.5745 6.05127C32.4853 6.29693 32.4179 6.53397 32.2615 7.1594C32.234 7.26847 32.1888 7.4074 32.1306 7.5665C31.8581 7.62504 31.5887 7.68262 31.394 7.72354C31.2469 7.75451 31.0286 7.79266 30.7798 7.83267C30.8732 7.45274 30.9559 7.07838 30.982 6.91475C31.0317 6.60219 30.9836 6.3072 30.9836 6.3072C30.9354 6.04015 30.9137 5.79605 30.8094 5.66695C30.7048 5.53778 30.5959 5.47175 30.4973 5.467C30.3986 5.4624 30.3346 5.467 30.2732 5.467C30.212 5.467 30.2493 5.5484 30.2493 5.5484C30.1511 5.55823 30.0961 5.56878 30.1215 5.78628C30.1465 6.00392 29.994 6.98998 29.7944 7.82534C29.7813 7.88044 29.7684 7.93294 29.7559 7.98375C29.3164 8.04336 28.9361 8.08774 28.8064 8.09056C28.5007 8.09727 28.4656 8.08376 28.3942 8.06333C28.3942 8.06333 28.2743 8.02069 28.266 8.05658C28.2574 8.09227 28.2504 8.13537 28.2606 8.14378C28.271 8.15213 28.2834 8.19659 28.2711 8.20466C28.2587 8.21279 28.2301 8.22661 28.2517 8.26042C28.2732 8.2944 28.3611 8.33546 28.4296 8.36236C28.4981 8.38923 28.5818 8.42498 28.6265 8.45819C28.6265 8.45819 28.7091 8.52675 28.9537 8.51268C28.9537 8.51268 29.2908 8.51431 29.6136 8.52161C29.5182 8.85821 29.4604 9.00812 29.4604 9.00812C29.4604 9.00812 29.3537 9.24599 28.9272 10.1025C28.5007 10.959 28.1405 11.3288 27.983 11.2993C27.8817 11.2803 27.8568 11.1116 27.8516 10.9935C27.8538 10.9702 27.8549 10.9459 27.8538 10.919C27.848 10.7936 27.8487 10.6728 27.8624 10.5499C28.2489 10.2051 28.7008 9.72451 28.881 9.5129C29.1301 9.22067 28.8686 9.09872 28.7495 9.10339C28.5787 9.11002 28.4092 9.14428 28.0455 9.53145C27.8056 9.78724 27.6585 10.2185 27.5892 10.5714C27.443 10.6718 27.3209 10.749 27.3209 10.749C27.2861 10.7686 27.1845 10.827 27.0814 10.901C27.1195 10.7254 27.1721 10.592 27.2008 10.4506C27.2615 10.1511 27.2592 10.1362 27.2592 10.1362C27.2706 10.0819 27.2777 10.0478 27.2777 10.0478C27.3345 9.71425 27.2215 9.56557 27.1498 9.55174C27.078 9.53803 27.0716 9.49753 26.9794 9.44998C26.8869 9.40228 26.8726 9.42952 26.8155 9.45669C26.7588 9.48382 26.7588 9.46344 26.7436 9.45282C26.7285 9.44212 26.7233 9.44998 26.5953 9.58586C26.4673 9.72161 26.2896 9.91888 26.1545 10.0889C26.0195 10.2589 25.7115 10.4753 25.5786 10.2588C25.4459 10.0424 25.5227 9.6708 25.5857 9.59261C25.6487 9.51458 25.6496 9.48382 25.6352 9.47043C25.6208 9.45719 25.5714 9.43623 25.5075 9.46344C25.4434 9.49075 25.4361 9.51121 25.401 9.56585C25.3657 9.62034 25.33 9.68957 25.1378 9.844C24.9455 9.9985 24.3153 10.7697 24.2634 10.8298C24.2115 10.89 24.2066 10.8773 24.1924 10.8705C24.1782 10.8635 24.2196 10.5879 24.2352 10.4485C24.2503 10.3091 24.335 9.96773 24.4271 9.7965C24.5192 9.6255 24.6117 9.43623 24.6117 9.43623C24.6401 9.37503 24.6829 9.19836 24.6898 9.1779C24.6968 9.15761 24.7013 9.09382 24.6898 9.08293C24.6785 9.0719 24.5694 9.06927 24.4909 9.05575C24.4121 9.04223 24.3204 9.03543 24.2748 9.03543C24.2289 9.03543 24.0857 8.99437 24.0857 8.99437C24.0857 8.99437 24.0222 9.10552 23.9439 9.2675C23.8643 9.28033 23.7484 9.30283 23.6668 9.33524C23.5312 9.3889 23.2624 9.53781 23.0761 9.96659C22.8899 10.3953 23.0073 10.5415 23.049 10.5592C23.0907 10.5769 23.1543 10.6663 23.2682 10.6054C23.3556 10.5585 23.5017 10.4722 23.5984 10.4065C23.5512 10.7246 23.5288 11.0295 23.5381 11.1355C23.5525 11.2987 23.4707 11.3253 23.6589 11.4756C23.8475 11.6259 23.8362 11.6163 23.9008 11.591C23.9654 11.5657 24.0047 11.6036 24.0487 11.6245C24.0929 11.6454 24.1921 11.7131 24.2278 11.652C24.2634 11.591 24.3134 11.482 24.4413 11.3189C24.5692 11.1558 25.0955 10.3132 25.3582 10.0277C25.3582 10.0277 25.3148 10.4993 25.7352 10.5513C26.1558 10.6031 26.2692 10.2477 26.6805 10.1228C26.6805 10.1228 26.7025 10.3118 26.6818 10.5121C26.6818 10.5121 26.647 10.8586 26.6044 11.2504C26.4755 11.3502 26.3343 11.4622 26.1841 11.5858C25.3562 12.2662 24.7404 13.293 25.2513 13.8474C25.8596 14.507 26.6048 13.1034 26.8596 11.9936C26.9369 11.6566 26.9608 11.4414 27.0031 11.2534C27.235 11.0537 27.3809 10.9331 27.4687 10.8626C27.4951 10.8458 27.5237 10.8262 27.553 10.8046C27.5483 10.8466 27.5447 10.8864 27.5428 10.9224H27.5427C27.5427 10.9224 27.4687 11.2938 27.7564 11.5057C28.0442 11.7176 28.3228 11.6861 28.7779 11.0403C29.2328 10.3946 29.2965 10.2994 29.2965 10.2994C29.2965 10.2994 29.2898 10.585 29.2371 10.9611C29.1847 11.3375 29.2783 11.8953 29.8085 12.1958C30.3387 12.4964 30.4556 12.1007 30.5692 11.8765C30.6831 11.6524 31.2733 10.7207 31.4153 10.4151C31.5575 10.1093 31.8066 9.81683 31.8066 9.81683C31.8066 9.81683 31.7498 10.1433 31.6853 10.4559C31.6211 10.7685 31.6075 11.2103 31.5717 11.6998C31.5362 12.1893 31.6502 12.3453 31.6502 12.3453C31.8458 12.63 32.7802 11.8086 33.2066 11.4685C33.4226 11.2966 33.7025 11.0543 33.9687 10.8116Z" fill="white"/>
<path d="M22.2221 11.8418C22.2247 11.8393 22.2282 11.8381 22.2263 11.8337C22.2248 11.8306 22.2204 11.8297 22.2188 11.8269C22.2173 11.8245 22.2185 11.8185 22.2185 11.8158C22.2185 11.8126 22.2189 11.81 22.2173 11.8073C22.2163 11.8057 22.2139 11.8018 22.2122 11.8014C22.2084 11.8005 22.2059 11.8044 22.204 11.8069C22.2018 11.8098 22.1994 11.8115 22.1981 11.8153C22.1943 11.8265 22.187 11.8437 22.198 11.8534C22.2029 11.8577 22.2118 11.855 22.2153 11.8507C22.2178 11.8479 22.2193 11.8443 22.2221 11.8418Z" fill="white"/>
<path d="M22.1852 11.1643C22.1712 11.2033 22.1643 11.2444 22.1356 11.258C22.1071 11.2716 22.0666 11.3014 22.0594 11.2285C22.1247 10.7369 22.1569 10.4967 22.1569 10.4967C22.1569 10.4967 22.1623 10.4733 22.1709 10.4376C22.171 10.4825 22.1723 10.5971 22.1783 10.6394C22.1858 10.6928 22.1427 10.7683 22.1569 10.8092C22.1712 10.8502 22.1854 10.8637 22.1712 10.8976C22.1569 10.9317 22.1219 10.9901 22.143 11.0151C22.1638 11.0403 22.1993 11.0538 22.1783 11.0538C22.1572 11.0538 22.1215 11.0475 22.1215 11.0813C22.1215 11.115 22.1569 11.1425 22.1569 11.1425C22.1569 11.1425 22.1993 11.1251 22.1852 11.1643ZM22.0238 12.7634C22.0229 12.7891 22.0493 12.8438 22.0436 12.8576C22.038 12.8714 22.0339 12.8699 22.0339 12.8699C22.0339 12.8699 22.0248 12.8774 22.0246 12.9045C22.0246 12.9318 21.9847 12.9205 21.9886 12.893C21.9927 12.8655 21.9792 12.7981 21.9734 12.7764C21.9678 12.7546 21.9886 12.7379 21.9886 12.7379C22.0207 12.7238 22.0248 12.7379 22.0238 12.7634ZM19.5717 9.46344C19.5318 9.56208 19.4011 10.1567 19.4011 10.1567C19.4011 10.1567 18.7639 10.8402 18.5193 11.0064C18.2747 11.1725 18.7939 10.2708 18.9958 9.9936C19.1977 9.71674 19.4579 9.51121 19.5219 9.44998C19.586 9.38876 19.6115 9.36505 19.5717 9.46344ZM22.7843 8.245C22.9989 7.88503 23.1844 7.73203 23.2341 7.75893C23.2839 7.78622 23.2831 8.05857 23.0279 8.52782C22.7724 8.99686 22.309 9.40347 22.309 9.40347C22.3634 9.21124 22.5699 8.60482 22.7843 8.245ZM22.8108 10.1025C22.8394 10.0758 22.8299 10.0616 22.8299 10.0616C22.8299 10.0616 22.8011 10.0481 22.7881 10.0517C22.7747 10.0553 22.7845 10.0519 22.7906 10.0431C22.7968 10.0344 22.7916 10.0269 22.7778 10.0251C22.764 10.0231 22.7797 10.0119 22.7817 9.99963C22.7837 9.98747 22.7708 9.97926 22.76 9.96969C22.7493 9.95993 22.7301 9.96184 22.7328 9.95067C22.7356 9.93961 22.7356 9.93961 22.7356 9.93961L22.698 9.94165C22.7158 9.9304 22.7032 9.91718 22.6758 9.92573C22.6484 9.9343 22.6397 9.93942 22.5811 9.94627C22.5614 9.94859 22.435 9.96836 22.2761 9.99355C22.2783 9.97911 22.2803 9.96601 22.2819 9.95766C22.2872 9.92822 22.2832 9.93579 22.292 9.91207C22.301 9.88844 22.2836 9.87436 22.3011 9.85653C22.3185 9.83861 22.3152 9.7956 22.2877 9.77273L22.2593 9.72501C22.2593 9.72501 22.4017 9.55528 22.5511 9.39861C22.7005 9.24196 23.1173 8.78213 23.321 8.25315C23.5246 7.72382 23.4208 7.68124 23.2341 7.58218C23.0476 7.48321 22.793 7.53485 22.5725 7.56872C22.5725 7.56872 22.2544 7.62254 22.1781 7.62269C22.1017 7.62296 22.061 7.65221 22.0714 7.69382C22.0821 7.73548 22.0245 7.78221 22.0033 7.83391C21.982 7.88575 21.9609 7.94951 21.9394 7.99714C21.918 8.04469 21.8682 8.15376 21.8824 8.14704C21.8967 8.14004 21.9324 8.11583 21.9394 8.13324C21.9465 8.15044 21.9497 8.18525 21.9323 8.23007C21.9323 8.23007 21.8684 8.4051 21.7971 8.56858C21.7258 8.73187 21.4619 9.33056 21.3698 9.4938C21.2777 9.65708 21.178 9.85426 21.114 9.96996C21.0501 10.0854 21.0555 10.1364 20.966 10.1551C20.8768 10.1737 20.818 10.1796 20.7727 10.2012C20.7206 10.2261 20.7652 10.2631 20.7081 10.282C20.7148 10.286 20.7223 10.2909 20.728 10.2943C20.7122 10.3154 20.7154 10.3118 20.7308 10.3318C20.7231 10.3375 20.7187 10.3464 20.708 10.3515C20.714 10.3532 20.7206 10.3577 20.7306 10.3588C20.7247 10.3648 20.722 10.3774 20.7119 10.3839C20.7236 10.3818 20.7385 10.3861 20.7503 10.3851C20.7368 10.4054 20.7394 10.4227 20.7666 10.4296C20.7666 10.4296 20.8152 10.4605 20.8439 10.4734C20.8439 10.4734 20.4747 11.0723 20.4241 11.1739C20.3734 11.2756 20.346 11.2769 20.3603 11.1064C20.3743 10.9359 20.3673 9.93607 20.4597 9.69792C20.5519 9.45973 20.6005 9.31133 20.5165 9.2012C20.4917 9.16892 20.4766 9.13297 20.4581 9.09745C20.4504 9.08229 20.4426 9.0735 20.4293 9.06283C20.415 9.05116 20.4071 9.03007 20.3884 9.02362C20.3674 9.01624 20.3343 9.02255 20.3127 9.02227C20.3068 9.02227 20.3008 9.02227 20.2947 9.02241C20.2669 9.02268 20.2384 9.02332 20.2109 9.02042C20.1752 9.01705 20.1536 9.01166 20.1174 9.02127C20.0827 9.03048 20.0489 9.0421 20.014 9.05116C19.9778 9.06034 19.9119 9.08058 19.8773 9.05802C19.8689 9.05244 19.8647 9.04364 19.8541 9.04101C19.8379 9.03714 19.8158 9.04873 19.8021 9.05575C19.7215 9.09744 19.7492 9.06927 19.6641 9.06255C19.579 9.05575 19.5219 9.11002 19.1665 9.41586C18.8108 9.72178 18.4657 10.4205 18.3985 10.6461C18.3313 10.8719 18.2146 10.9866 18.3275 11.1287C18.4401 11.2711 18.627 11.1408 18.8111 10.9738C18.9951 10.8066 19.3728 10.5373 19.3728 10.5373C19.3649 11.1044 19.4792 11.9647 19.5148 12.2026C19.5505 12.4405 20.0179 12.5987 20.26 12.5723C20.5021 12.5461 20.6499 12.019 20.8064 11.7269C20.9555 11.4481 21.2652 10.8995 21.2933 10.8492C21.2843 10.906 21.2752 10.9647 21.2656 11.0267C21.2656 11.0267 21.2211 11.6093 21.1789 12.2468C21.1789 12.2468 21.1748 12.3936 21.2027 12.4338C21.2305 12.4739 21.2257 12.5829 21.2185 12.6445C21.2114 12.7063 21.2054 12.9052 21.2114 13.0003C21.2177 13.0953 21.155 13.1364 21.1477 13.0728C21.1435 13.0369 21.1318 13.0214 21.1328 13.0007C21.1163 13.3012 21.1051 13.563 21.1051 13.7184C21.1051 14.0058 21.225 14.0574 21.2613 14.0992C21.2834 14.1246 21.2947 14.0683 21.3537 14.133C21.3537 14.133 21.4061 14.174 21.4958 14.181C21.5852 14.1881 21.5964 14.243 21.6231 14.2284C21.6501 14.2136 21.6424 14.1706 21.6828 14.162C21.7232 14.1534 21.7641 14.1604 21.8015 14.1738C21.839 14.1874 21.8807 14.1714 21.898 14.1896C21.9154 14.2079 21.9223 14.2053 21.9223 14.2053C21.9223 14.2053 21.9436 14.1746 21.9581 14.1057C21.9722 14.037 21.9896 13.9777 21.9965 13.8418C22.0033 13.7117 22.0074 13.4801 22.0138 13.1449C22.014 13.1396 22.014 13.1346 22.0141 13.1293C22.0154 13.1053 22.0228 13.0624 22.0575 13.0591C22.1055 13.0547 22.0857 13.1211 22.0714 13.1985C22.0575 13.276 22.037 13.3802 22.0575 13.4194C22.0776 13.4585 22.1016 13.4189 22.1079 13.3155C22.1142 13.2121 22.1268 13.1772 22.1215 13.1203C22.1159 13.0635 22.0787 12.9709 22.1002 12.9165C22.1215 12.8621 22.107 12.8419 22.1569 12.8621C22.2068 12.8822 22.2352 12.8892 22.2352 12.8892C22.2352 12.8892 22.2402 12.8246 22.1923 12.8009C22.1444 12.7773 22.1566 12.7456 22.1566 12.7456C22.1566 12.7456 22.0639 12.8223 22.0644 12.7464C22.0648 12.6706 22.0931 12.6577 22.0931 12.5763C22.0931 12.4949 22.0429 12.5025 22.0501 12.4546C22.0575 12.4067 22.0673 12.4075 22.0931 12.4067C22.0931 12.4067 22.0941 12.3445 22.0714 12.325C22.0491 12.3056 22.0078 12.3143 22.0074 12.2339C22.0073 12.1536 22.0077 12.0725 22.0087 11.9915C22.0091 11.9887 22.0178 11.9348 22.0786 11.8834C22.1413 11.8305 22.0989 11.8174 22.0575 11.7676C22.016 11.7178 22.0785 11.6655 22.0858 11.5707C22.0931 11.4756 22.0931 11.4756 22.0931 11.4756C22.0931 11.4756 22.1311 11.4462 22.1569 11.4727C22.1826 11.4989 22.1427 11.5433 22.1498 11.584C22.1569 11.6249 22.153 11.6797 22.1657 11.6795C22.1783 11.6794 22.1849 11.7143 22.1997 11.7269C22.2145 11.7393 22.2448 11.7217 22.2279 11.6591C22.2113 11.5964 22.2565 11.5569 22.2352 11.5637C22.2137 11.5707 22.1939 11.5623 22.2279 11.523C22.2621 11.4838 22.2329 11.4767 22.2411 11.4216C22.2492 11.3668 22.2423 11.36 22.2423 11.36C22.2423 11.36 22.2136 11.4704 22.1854 11.3737C22.1687 11.3163 22.1794 11.2978 22.1923 11.2639L22.1925 11.2639C22.1991 11.2663 22.1996 11.2645 22.2053 11.2694C22.2087 11.2724 22.2108 11.2765 22.2155 11.2774C22.2224 11.2789 22.2387 11.2696 22.2436 11.265C22.2492 11.2601 22.2467 11.2585 22.249 11.2516C22.2501 11.2485 22.2553 11.2439 22.2563 11.2409C22.2593 11.2312 22.2561 11.2165 22.2434 11.2148C22.2308 11.2132 22.2279 11.2303 22.2171 11.2329C22.206 11.2356 22.2108 11.229 22.206 11.2261C22.2053 11.2256 22.2045 11.2258 22.2038 11.2256C22.2083 11.207 22.2122 11.1846 22.2137 11.1537C22.2208 11.0151 22.2776 10.9457 22.285 10.8298C22.292 10.7139 22.3132 10.5705 22.3132 10.5373C22.3132 10.512 22.3132 10.444 22.3132 10.4133C22.3466 10.4081 22.3782 10.4021 22.4056 10.3946C22.6609 10.3263 22.8445 10.1808 22.8445 10.1808C22.8445 10.1808 22.8596 10.1699 22.8246 10.1804C22.8246 10.1804 22.7356 10.2074 22.7894 10.1637C22.8438 10.1201 22.8574 10.1059 22.8574 10.1059C22.8574 10.1059 22.7825 10.1292 22.8108 10.1025Z" fill="white"/>
<path d="M22.2151 12.3958L22.176 12.3659C22.176 12.3659 22.1428 12.4561 22.1681 12.501C22.1937 12.5456 22.2151 12.3958 22.2151 12.3958Z" fill="white"/>
<path d="M22.1512 12.1179C22.1647 12.1138 22.1601 12.0973 22.1601 12.0867C22.1601 12.0795 22.1592 12.0716 22.16 12.0644C22.1611 12.0566 22.1643 12.0541 22.1683 12.047C22.174 12.0368 22.1834 12.0255 22.1869 12.015C22.1887 12.0089 22.1897 12.0016 22.1846 11.997C22.162 11.9764 22.135 12.0257 22.132 12.0425C22.1297 12.0561 22.1324 12.0727 22.1324 12.0867C22.1324 12.0988 22.1301 12.1242 22.1512 12.1179Z" fill="white"/>
</g>
<path fill-rule="evenodd" clip-rule="evenodd" d="M4.40104 10.3571H5.56768V10.9236C5.56768 11.0345 5.57997 11.144 5.60373 11.25L4.06771 11.25V10.7143C4.06771 10.517 4.21695 10.3571 4.40104 10.3571ZM5.90102 10.9236V10.3571H7.56755V10.9235C7.56755 11.1841 7.47635 11.4345 7.31291 11.626C7.1496 11.5017 6.94996 11.4286 6.73438 11.4286C6.51871 11.4286 6.31898 11.5017 6.15564 11.6261C5.9922 11.4347 5.90102 11.1842 5.90102 10.9236ZM5.9196 11.8787C5.84732 11.7959 5.78525 11.7046 5.73426 11.6071L4.06771 11.6071V12.3214H5.7482C5.77373 12.1584 5.83361 12.0079 5.9196 11.8787ZM5.7482 12.6786H4.06771V13.3929L5.73429 13.3929C5.78528 13.2954 5.84734 13.2041 5.91961 13.1214C5.83361 12.9921 5.77373 12.8416 5.7482 12.6786ZM6.15565 13.3739C5.99222 13.5653 5.90104 13.8158 5.90104 14.0764V14.6429H7.56755V14.0765C7.56755 13.8159 7.47635 13.5655 7.31291 13.374C7.1496 13.4983 6.94996 13.5714 6.73438 13.5714C6.51871 13.5714 6.31899 13.4983 6.15565 13.3739ZM7.549 13.1216C7.62122 13.2043 7.68325 13.2955 7.73422 13.3929H9.40104V12.6786L7.72055 12.6786C7.69501 12.8417 7.63507 12.9923 7.549 13.1216ZM7.40088 12.4841V12.5159C7.39297 12.9031 7.09759 13.2143 6.73438 13.2143C6.36619 13.2143 6.06771 12.8945 6.06771 12.5C6.06771 12.1055 6.36619 11.7857 6.73438 11.7857C7.09759 11.7857 7.39297 12.0969 7.40088 12.4841ZM7.72055 12.3214L9.40104 12.3214V11.6071L7.73422 11.6071C7.68325 11.7045 7.62122 11.7957 7.549 11.8784C7.63507 12.0077 7.69501 12.1583 7.72055 12.3214ZM4.40104 10H9.06771C9.4359 10 9.73438 10.3198 9.73438 10.7143V14.2857C9.73438 14.6802 9.4359 15 9.06771 15H4.40104C4.03285 15 3.73438 14.6802 3.73438 14.2857V10.7143C3.73438 10.3198 4.03285 10 4.40104 10ZM7.90088 10.9235V10.3571H9.06771C9.2518 10.3571 9.40104 10.517 9.40104 10.7143V11.25L7.8648 11.25C7.88858 11.1439 7.90088 11.0344 7.90088 10.9235ZM5.60376 13.75L4.06771 13.75V14.2857C4.06771 14.483 4.21695 14.6429 4.40104 14.6429H5.56771V14.0764C5.56771 13.9655 5.57999 13.856 5.60376 13.75ZM7.90088 14.6429V14.0765C7.90088 13.9656 7.88858 13.8561 7.8648 13.75H9.40104V14.2857C9.40104 14.483 9.2518 14.6429 9.06771 14.6429H7.90088Z" fill="white"/>
<defs>
<clipPath id="clip0_16929_250020">
<rect width="11" height="8" fill="white" transform="translate(28.333 16)"/>
</clipPath>
<clipPath id="clip1_16929_250020">
<rect width="27" height="15" fill="white" transform="translate(11.333)"/>
</clipPath>
</defs>
</svg>
