<svg width="90" height="24" viewBox="0 0 90 24" fill="none" xmlns="http://www.w3.org/2000/svg">
<rect x="0.500977" y="0.5" width="89" height="23" rx="2.46041" fill="white" stroke="#EDEDED"/>
<path d="M11.7939 12.5156H9.76367L9.75684 11.2441H11.5547C11.8327 11.2441 12.0697 11.1895 12.2656 11.0801C12.4616 10.9707 12.6097 10.8112 12.71 10.6016C12.8148 10.3919 12.8672 10.139 12.8672 9.84277C12.8672 9.51465 12.8193 9.24805 12.7236 9.04297C12.6325 8.83333 12.4912 8.68066 12.2998 8.58496C12.1084 8.48926 11.8623 8.44141 11.5615 8.44141H10.2559V17H8.59473V7.04688H11.5615C12.0264 7.04688 12.4411 7.09928 12.8057 7.2041C13.1702 7.30892 13.4801 7.47298 13.7354 7.69629C13.9951 7.9196 14.1911 8.19987 14.3232 8.53711C14.46 8.87435 14.5283 9.27539 14.5283 9.74023C14.5283 10.1458 14.4417 10.5195 14.2686 10.8613C14.0954 11.1986 13.8379 11.4766 13.4961 11.6953C13.1589 11.9095 12.7396 12.0371 12.2383 12.0781L11.7939 12.5156ZM11.7324 17H9.2168L9.98242 15.6123H11.7324C12.0286 15.6123 12.2725 15.5485 12.4639 15.4209C12.6553 15.2933 12.7988 15.1156 12.8945 14.8877C12.9902 14.6598 13.0381 14.3932 13.0381 14.0879C13.0381 13.7689 12.9971 13.4909 12.915 13.2539C12.833 13.0169 12.7008 12.8346 12.5186 12.707C12.3363 12.5794 12.0947 12.5156 11.7939 12.5156H10.1191L10.1328 11.2441H12.2725L12.6553 11.7295C13.1338 11.7386 13.5234 11.8571 13.8242 12.085C14.125 12.3083 14.346 12.5977 14.4873 12.9531C14.6286 13.3086 14.6992 13.6891 14.6992 14.0947C14.6992 14.7282 14.5807 15.2614 14.3438 15.6943C14.1113 16.1227 13.7741 16.4486 13.332 16.6719C12.89 16.8906 12.3568 17 11.7324 17ZM15.998 13.6025V13.0078C15.998 12.4336 16.0687 11.9255 16.21 11.4834C16.3512 11.0413 16.5518 10.6722 16.8115 10.376C17.0758 10.0752 17.3857 9.84961 17.7412 9.69922C18.0967 9.54427 18.4886 9.4668 18.917 9.4668C19.3545 9.4668 19.751 9.54427 20.1064 9.69922C20.4665 9.84961 20.7764 10.0752 21.0361 10.376C21.3005 10.6722 21.5033 11.0413 21.6445 11.4834C21.7858 11.9255 21.8564 12.4336 21.8564 13.0078V13.6025C21.8564 14.1768 21.7858 14.6849 21.6445 15.127C21.5033 15.569 21.3005 15.9404 21.0361 16.2412C20.7764 16.5374 20.4688 16.7607 20.1133 16.9111C19.7578 17.0615 19.3636 17.1367 18.9307 17.1367C18.5023 17.1367 18.1081 17.0615 17.748 16.9111C17.3926 16.7607 17.0827 16.5374 16.8184 16.2412C16.554 15.9404 16.3512 15.569 16.21 15.127C16.0687 14.6849 15.998 14.1768 15.998 13.6025ZM17.5908 13.0078V13.6025C17.5908 13.9717 17.6227 14.2952 17.6865 14.5732C17.7503 14.8467 17.8415 15.0745 17.96 15.2568C18.0785 15.4391 18.2197 15.5758 18.3838 15.667C18.5479 15.7581 18.7301 15.8037 18.9307 15.8037C19.154 15.8037 19.3477 15.7581 19.5117 15.667C19.6803 15.5758 19.8193 15.4391 19.9287 15.2568C20.0426 15.0745 20.127 14.8467 20.1816 14.5732C20.2363 14.2952 20.2637 13.9717 20.2637 13.6025V13.0078C20.2637 12.6432 20.2318 12.3242 20.168 12.0508C20.1042 11.7728 20.013 11.5426 19.8945 11.3604C19.776 11.1735 19.6325 11.0345 19.4639 10.9434C19.2998 10.8522 19.1175 10.8066 18.917 10.8066C18.721 10.8066 18.541 10.8522 18.377 10.9434C18.2174 11.0345 18.0785 11.1735 17.96 11.3604C17.8415 11.5426 17.7503 11.7728 17.6865 12.0508C17.6227 12.3242 17.5908 12.6432 17.5908 13.0078ZM24.8027 11.1826V17H23.21V9.60352H24.707L24.8027 11.1826ZM24.5156 13.0352H24.0098C24.0052 12.502 24.0622 12.0166 24.1807 11.5791C24.2992 11.1416 24.4678 10.7656 24.6865 10.4512C24.9053 10.1367 25.1673 9.89518 25.4727 9.72656C25.7826 9.55339 26.1266 9.4668 26.5049 9.4668C26.8011 9.4668 27.07 9.51693 27.3115 9.61719C27.5576 9.71289 27.7673 9.87012 27.9404 10.0889C28.1136 10.3076 28.2458 10.5924 28.3369 10.9434C28.4326 11.2943 28.4805 11.7227 28.4805 12.2285V17H26.8877V12.2148C26.8877 11.8685 26.849 11.5951 26.7715 11.3945C26.6986 11.1895 26.5892 11.0436 26.4434 10.957C26.2975 10.8659 26.113 10.8203 25.8896 10.8203C25.6846 10.8203 25.4954 10.8796 25.3223 10.998C25.1536 11.112 25.0078 11.2715 24.8848 11.4766C24.7663 11.6771 24.6751 11.9118 24.6113 12.1807C24.5475 12.445 24.5156 12.7298 24.5156 13.0352ZM33.5049 15.0518C33.5049 14.8968 33.4593 14.7601 33.3682 14.6416C33.2816 14.5186 33.1403 14.3978 32.9443 14.2793C32.7484 14.1608 32.4863 14.0332 32.1582 13.8965C31.8164 13.7552 31.5133 13.6139 31.249 13.4727C30.9847 13.3314 30.7614 13.1764 30.5791 13.0078C30.3968 12.8346 30.2578 12.6364 30.1621 12.4131C30.0664 12.1898 30.0186 11.93 30.0186 11.6338C30.0186 11.3285 30.0755 11.0459 30.1895 10.7861C30.3034 10.5264 30.4674 10.2985 30.6816 10.1025C30.8958 9.90202 31.1533 9.74707 31.4541 9.6377C31.7549 9.52376 32.0944 9.4668 32.4727 9.4668C33.0059 9.4668 33.4616 9.56478 33.8398 9.76074C34.2227 9.95215 34.5143 10.221 34.7148 10.5674C34.9199 10.9092 35.0225 11.3034 35.0225 11.75H33.4297C33.4297 11.5632 33.3955 11.3945 33.3271 11.2441C33.2588 11.0892 33.154 10.9661 33.0127 10.875C32.8714 10.7793 32.6914 10.7314 32.4727 10.7314C32.2721 10.7314 32.1035 10.7702 31.9668 10.8477C31.8346 10.9206 31.7344 11.0208 31.666 11.1484C31.6022 11.2715 31.5703 11.4105 31.5703 11.5654C31.5703 11.6794 31.5908 11.7796 31.6318 11.8662C31.6729 11.9528 31.7412 12.0371 31.8369 12.1191C31.9326 12.1966 32.0602 12.2764 32.2197 12.3584C32.3838 12.4404 32.5911 12.5339 32.8418 12.6387C33.3385 12.8301 33.751 13.0283 34.0791 13.2334C34.4072 13.4385 34.6533 13.6777 34.8174 13.9512C34.9814 14.2246 35.0635 14.5641 35.0635 14.9697C35.0635 15.2979 35.002 15.5941 34.8789 15.8584C34.7604 16.1227 34.5872 16.3506 34.3594 16.542C34.1361 16.7334 33.8649 16.8815 33.5459 16.9863C33.2314 17.0866 32.8805 17.1367 32.4932 17.1367C31.9144 17.1367 31.4245 17.0228 31.0234 16.7949C30.627 16.5625 30.3262 16.264 30.1211 15.8994C29.916 15.5348 29.8135 15.1497 29.8135 14.7441H31.3516C31.3652 15.0358 31.4268 15.2637 31.5361 15.4277C31.6501 15.5918 31.7936 15.7057 31.9668 15.7695C32.14 15.8288 32.32 15.8584 32.5068 15.8584C32.7301 15.8584 32.9147 15.8288 33.0605 15.7695C33.2064 15.7057 33.3158 15.6123 33.3887 15.4893C33.4661 15.3662 33.5049 15.2204 33.5049 15.0518ZM43.3965 15.4551V6.5H44.9893V17L43.5469 17.0068L43.3965 15.4551ZM39.4248 13.6025V13.0215C39.4248 12.4154 39.4795 11.8913 39.5889 11.4492C39.6982 11.0026 39.8577 10.6312 40.0674 10.335C40.2816 10.0387 40.5391 9.81999 40.8398 9.67871C41.1406 9.53743 41.4801 9.4668 41.8584 9.4668C42.2275 9.4668 42.5465 9.55111 42.8154 9.71973C43.0843 9.88379 43.3122 10.1185 43.499 10.4238C43.6859 10.7292 43.834 11.0938 43.9434 11.5176C44.0573 11.9368 44.1348 12.4062 44.1758 12.9258V13.7324C44.1257 14.2337 44.0459 14.694 43.9365 15.1133C43.8271 15.528 43.679 15.8857 43.4922 16.1865C43.3053 16.4873 43.0752 16.722 42.8018 16.8906C42.5329 17.0547 42.2161 17.1367 41.8516 17.1367C41.4733 17.1367 41.1338 17.0615 40.833 16.9111C40.5368 16.7607 40.2816 16.5374 40.0674 16.2412C39.8577 15.945 39.6982 15.5781 39.5889 15.1406C39.4795 14.6986 39.4248 14.1859 39.4248 13.6025ZM41.0176 13.0215V13.6025C41.0176 13.9808 41.0404 14.3066 41.0859 14.5801C41.1315 14.8535 41.2044 15.0791 41.3047 15.2568C41.4049 15.43 41.5371 15.5599 41.7012 15.6465C41.8652 15.7285 42.0635 15.7695 42.2959 15.7695C42.5876 15.7695 42.8245 15.6966 43.0068 15.5508C43.1937 15.4049 43.3372 15.209 43.4375 14.9629C43.5423 14.7122 43.6152 14.4342 43.6562 14.1289V12.5361C43.6335 12.2946 43.5879 12.0713 43.5195 11.8662C43.4512 11.6566 43.3623 11.4743 43.2529 11.3193C43.1436 11.1644 43.0091 11.0436 42.8496 10.957C42.6947 10.8659 42.5124 10.8203 42.3027 10.8203C42.0703 10.8203 41.8721 10.8659 41.708 10.957C41.5439 11.0436 41.4118 11.1781 41.3115 11.3604C41.2113 11.5381 41.1361 11.766 41.0859 12.0439C41.0404 12.3174 41.0176 12.6432 41.0176 13.0215ZM48.1406 6.5V7.4707C48.1406 7.75781 48.0928 8.05632 47.9971 8.36621C47.9059 8.67611 47.776 8.97233 47.6074 9.25488C47.4434 9.53288 47.252 9.77669 47.0332 9.98633L46.2471 9.45996C46.402 9.17741 46.5296 8.87891 46.6299 8.56445C46.7301 8.24544 46.7803 7.88542 46.7803 7.48438V6.5H48.1406ZM52.666 15.4961V11.8115C52.666 11.5563 52.6296 11.3512 52.5566 11.1963C52.4883 11.0413 52.3857 10.9297 52.249 10.8613C52.1169 10.7884 51.9505 10.752 51.75 10.752C51.5404 10.752 51.3626 10.7952 51.2168 10.8818C51.0755 10.9684 50.9684 11.0869 50.8955 11.2373C50.8226 11.3831 50.7861 11.5518 50.7861 11.7432H49.1934C49.1934 11.4469 49.2526 11.1621 49.3711 10.8887C49.4941 10.6152 49.6696 10.3714 49.8975 10.1572C50.1253 9.94303 50.401 9.77441 50.7246 9.65137C51.0482 9.52832 51.4082 9.4668 51.8047 9.4668C52.2786 9.4668 52.7002 9.54655 53.0693 9.70605C53.4385 9.861 53.7279 10.1139 53.9375 10.4648C54.1517 10.8112 54.2588 11.2669 54.2588 11.832V15.2842C54.2588 15.626 54.2793 15.9313 54.3203 16.2002C54.3659 16.4645 54.4274 16.6947 54.5049 16.8906V17H52.8848C52.8118 16.8223 52.7572 16.5944 52.7207 16.3164C52.6842 16.0384 52.666 15.765 52.666 15.4961ZM52.8779 12.4951L52.8848 13.5273H52.1191C51.8913 13.5273 51.6862 13.5592 51.5039 13.623C51.3216 13.6823 51.1667 13.7689 51.0391 13.8828C50.916 13.9922 50.8203 14.1266 50.752 14.2861C50.6882 14.4456 50.6562 14.6211 50.6562 14.8125C50.6562 15.0449 50.6882 15.234 50.752 15.3799C50.8203 15.5257 50.9183 15.6351 51.0459 15.708C51.1781 15.7764 51.3376 15.8105 51.5244 15.8105C51.7796 15.8105 52.0007 15.7559 52.1875 15.6465C52.3789 15.5326 52.5247 15.3958 52.625 15.2363C52.7298 15.0768 52.7708 14.931 52.748 14.7988L53.1104 15.4619C53.0739 15.6351 53.0055 15.8174 52.9053 16.0088C52.8096 16.2002 52.6842 16.3825 52.5293 16.5557C52.3743 16.7288 52.1875 16.8701 51.9688 16.9795C51.75 17.0843 51.4971 17.1367 51.21 17.1367C50.7952 17.1367 50.4261 17.0501 50.1025 16.877C49.779 16.7038 49.5238 16.4554 49.3369 16.1318C49.1546 15.8037 49.0635 15.4118 49.0635 14.9561C49.0635 14.5869 49.125 14.252 49.248 13.9512C49.3711 13.6504 49.5534 13.3929 49.7949 13.1787C50.0365 12.96 50.3395 12.7913 50.7041 12.6729C51.0732 12.5544 51.5039 12.4951 51.9961 12.4951H52.8779ZM58.5176 15.8037C58.7227 15.8037 58.9049 15.7604 59.0645 15.6738C59.2285 15.5872 59.3584 15.4528 59.4541 15.2705C59.5498 15.0837 59.6022 14.8421 59.6113 14.5459H61.1084C61.0993 15.07 60.9785 15.528 60.7461 15.9199C60.5137 16.3073 60.2038 16.6081 59.8164 16.8223C59.4336 17.0319 59.0075 17.1367 58.5381 17.1367C58.0505 17.1367 57.6243 17.0592 57.2598 16.9043C56.8997 16.7448 56.6012 16.5146 56.3643 16.2139C56.1273 15.9131 55.9495 15.5485 55.8311 15.1201C55.7171 14.6872 55.6602 14.1927 55.6602 13.6367V12.9668C55.6602 12.4154 55.7171 11.9232 55.8311 11.4902C55.9495 11.0573 56.1273 10.6904 56.3643 10.3896C56.6012 10.0889 56.8997 9.861 57.2598 9.70605C57.6198 9.54655 58.0436 9.4668 58.5312 9.4668C59.0508 9.4668 59.4997 9.57617 59.8779 9.79492C60.2607 10.0091 60.5592 10.3236 60.7734 10.7383C60.9876 11.153 61.0993 11.6611 61.1084 12.2627H59.6113C59.6022 11.9437 59.5544 11.6771 59.4678 11.4629C59.3812 11.2441 59.2581 11.0801 59.0986 10.9707C58.9437 10.8613 58.7477 10.8066 58.5107 10.8066C58.251 10.8066 58.0368 10.8568 57.8682 10.957C57.7041 11.0527 57.5765 11.194 57.4854 11.3809C57.3988 11.5677 57.3372 11.7956 57.3008 12.0645C57.2689 12.3288 57.2529 12.6296 57.2529 12.9668V13.6367C57.2529 13.9831 57.2689 14.2907 57.3008 14.5596C57.3327 14.8239 57.3919 15.0495 57.4785 15.2363C57.5697 15.4232 57.6995 15.5645 57.8682 15.6602C58.0368 15.7559 58.2533 15.8037 58.5176 15.8037ZM63.9111 6.5V17H62.3252V6.5H63.9111ZM63.6309 13.0352H63.125C63.1204 12.5202 63.1751 12.0462 63.2891 11.6133C63.403 11.1803 63.5671 10.8021 63.7812 10.4785C63.9954 10.1549 64.2529 9.90658 64.5537 9.7334C64.859 9.55566 65.1963 9.4668 65.5654 9.4668C65.8708 9.4668 66.1465 9.51921 66.3926 9.62402C66.6432 9.72428 66.8574 9.88379 67.0352 10.1025C67.2174 10.3213 67.3564 10.6084 67.4521 10.9639C67.5479 11.3148 67.5957 11.7432 67.5957 12.249V17H66.0029V12.2354C66.0029 11.8844 65.9642 11.6064 65.8867 11.4014C65.8138 11.1963 65.7044 11.0482 65.5586 10.957C65.4128 10.8659 65.2282 10.8203 65.0049 10.8203C64.7861 10.8203 64.5902 10.8796 64.417 10.998C64.2484 11.112 64.1048 11.2715 63.9863 11.4766C63.8678 11.6771 63.779 11.9118 63.7197 12.1807C63.6605 12.445 63.6309 12.7298 63.6309 13.0352ZM72.6133 15.4961V11.8115C72.6133 11.5563 72.5768 11.3512 72.5039 11.1963C72.4355 11.0413 72.333 10.9297 72.1963 10.8613C72.0641 10.7884 71.8978 10.752 71.6973 10.752C71.4876 10.752 71.3099 10.7952 71.1641 10.8818C71.0228 10.9684 70.9157 11.0869 70.8428 11.2373C70.7699 11.3831 70.7334 11.5518 70.7334 11.7432H69.1406C69.1406 11.4469 69.1999 11.1621 69.3184 10.8887C69.4414 10.6152 69.6169 10.3714 69.8447 10.1572C70.0726 9.94303 70.3483 9.77441 70.6719 9.65137C70.9954 9.52832 71.3555 9.4668 71.752 9.4668C72.2259 9.4668 72.6475 9.54655 73.0166 9.70605C73.3857 9.861 73.6751 10.1139 73.8848 10.4648C74.099 10.8112 74.2061 11.2669 74.2061 11.832V15.2842C74.2061 15.626 74.2266 15.9313 74.2676 16.2002C74.3132 16.4645 74.3747 16.6947 74.4521 16.8906V17H72.832C72.7591 16.8223 72.7044 16.5944 72.668 16.3164C72.6315 16.0384 72.6133 15.765 72.6133 15.4961ZM72.8252 12.4951L72.832 13.5273H72.0664C71.8385 13.5273 71.6335 13.5592 71.4512 13.623C71.2689 13.6823 71.1139 13.7689 70.9863 13.8828C70.8633 13.9922 70.7676 14.1266 70.6992 14.2861C70.6354 14.4456 70.6035 14.6211 70.6035 14.8125C70.6035 15.0449 70.6354 15.234 70.6992 15.3799C70.7676 15.5257 70.8656 15.6351 70.9932 15.708C71.1253 15.7764 71.2848 15.8105 71.4717 15.8105C71.7269 15.8105 71.9479 15.7559 72.1348 15.6465C72.3262 15.5326 72.472 15.3958 72.5723 15.2363C72.6771 15.0768 72.7181 14.931 72.6953 14.7988L73.0576 15.4619C73.0212 15.6351 72.9528 15.8174 72.8525 16.0088C72.7568 16.2002 72.6315 16.3825 72.4766 16.5557C72.3216 16.7288 72.1348 16.8701 71.916 16.9795C71.6973 17.0843 71.4443 17.1367 71.1572 17.1367C70.7425 17.1367 70.3734 17.0501 70.0498 16.877C69.7262 16.7038 69.471 16.4554 69.2842 16.1318C69.1019 15.8037 69.0107 15.4118 69.0107 14.9561C69.0107 14.5869 69.0723 14.252 69.1953 13.9512C69.3184 13.6504 69.5007 13.3929 69.7422 13.1787C69.9837 12.96 70.2868 12.7913 70.6514 12.6729C71.0205 12.5544 71.4512 12.4951 71.9434 12.4951H72.8252ZM78.8271 9.60352V10.834H75.1973V9.60352H78.8271ZM76.1885 7.79199H77.7744V14.9355C77.7744 15.1634 77.7995 15.3366 77.8496 15.4551C77.8997 15.5736 77.9704 15.6533 78.0615 15.6943C78.1527 15.7354 78.2598 15.7559 78.3828 15.7559C78.474 15.7559 78.5628 15.749 78.6494 15.7354C78.7406 15.7171 78.8066 15.7012 78.8477 15.6875V16.9727C78.7292 17.0182 78.5924 17.057 78.4375 17.0889C78.2826 17.1208 78.0957 17.1367 77.877 17.1367C77.5534 17.1367 77.264 17.0706 77.0088 16.9385C76.7536 16.8018 76.5531 16.5807 76.4072 16.2754C76.2614 15.9655 76.1885 15.5553 76.1885 15.0449V7.79199Z" fill="black"/>
</svg>
