<svg width="96" height="24" viewBox="0 0 96 24" fill="none" xmlns="http://www.w3.org/2000/svg">
<g clip-path="url(#clip0_16929_250065)">
<path d="M27.4085 9.11548H23.8971C23.4599 9.11548 23.1172 9.45847 23.1172 9.89607V14.8452C23.1172 15.2828 23.4599 15.6258 23.8971 15.6258C24.3342 15.6258 24.6768 15.2828 24.6768 14.8452V13.1421H27.0056C27.4075 13.1421 27.7227 12.827 27.7227 12.4244C27.7227 12.0217 27.4078 11.7066 27.0056 11.7066H24.6768V10.5508H27.4087C27.8041 10.5508 28.1258 10.2287 28.1258 9.83298C28.1258 9.43728 27.8041 9.11523 27.4087 9.11523L27.4085 9.11548Z" fill="#009FFF"/>
<path d="M30.1812 9.0625C29.7441 9.0625 29.4014 9.40523 29.4014 9.84283V14.7925C29.4014 15.2301 29.7441 15.5731 30.1812 15.5731H33.4241C33.8262 15.5731 34.1412 15.2579 34.1412 14.8553C34.1412 14.4527 33.8263 14.1375 33.4241 14.1375H30.9609V9.84283C30.9609 9.40523 30.6184 9.0625 30.1812 9.0625Z" fill="#009FFF"/>
<path d="M37.9605 9.00781C36.0364 9.00781 34.5293 10.4731 34.5293 12.3438V12.3618C34.5293 14.2534 35.9967 15.6795 37.9425 15.6795C39.8882 15.6795 41.3742 14.2142 41.3742 12.3438V12.3258C41.3742 10.4342 39.9067 9.00806 37.9605 9.00806V9.00781ZM39.752 12.3618C39.752 13.4247 38.9817 14.2265 37.9605 14.2265C36.9394 14.2265 36.1514 13.4171 36.1514 12.3438V12.3258C36.1514 11.2628 36.9213 10.4611 37.9425 10.4611C38.9636 10.4611 39.752 11.2705 39.752 12.3438V12.3618Z" fill="#009FFF"/>
<path d="M44.6316 15.6869C45.3522 15.6869 45.9933 15.4565 46.4858 15.0209L46.5957 14.9238L46.6308 15.0662C46.7104 15.389 47.0317 15.6147 47.412 15.6147C47.8608 15.6147 48.2124 15.2683 48.2124 14.826V11.694C48.2124 10.8097 47.9736 10.1287 47.5023 9.66937L47.5005 9.66765C47.0308 9.18471 46.2804 8.92969 45.3301 8.92969C44.5728 8.92969 43.951 9.04327 43.2506 9.30962C42.9837 9.41336 42.7969 9.68563 42.7969 9.97145C42.7969 10.3531 43.1126 10.6638 43.5005 10.6638C43.5781 10.6638 43.658 10.6515 43.7519 10.6247L43.7644 10.6205C44.1845 10.4551 44.6339 10.3746 45.1376 10.3746C45.6033 10.3746 45.9657 10.4758 46.2143 10.6759C46.4677 10.8797 46.6047 11.1845 46.6221 11.5817L46.6271 11.7041L46.5093 11.6711C46.2033 11.5854 45.7141 11.4715 45.0045 11.4715C44.164 11.4715 43.471 11.6691 43.0007 12.0427C42.5365 12.4115 42.291 12.9533 42.291 13.6093V13.6332C42.291 14.8425 43.2534 15.6869 44.6314 15.6869H44.6316ZM43.8911 13.5492C43.8911 13.1719 44.0857 12.8881 44.4534 12.7286C44.7391 12.6049 45.0681 12.5788 45.2936 12.5788C45.8709 12.5788 46.3162 12.6899 46.588 12.7831L46.648 12.8036V13.1751C46.648 13.9118 45.9724 14.4465 45.0411 14.4465C44.7508 14.4465 44.4808 14.3798 44.2809 14.2585C44.0258 14.1038 43.8911 13.8668 43.8911 13.573V13.5492Z" fill="#009FFF"/>
<path d="M20.1498 5.34242C19.6161 4.80823 18.8515 4.66409 18.1548 4.96618C17.2102 5.37569 16.7088 6.29253 16.3427 7.13497L14.9198 10.5771L18.3515 9.15616L18.3589 9.15297C19.2008 8.78657 20.1166 8.28465 20.526 7.33923C20.8278 6.64168 20.6838 5.87661 20.1501 5.34242H20.1498ZM19.7126 6.98664C19.5519 7.35795 19.2237 7.80862 18.0091 8.33787L16.5557 8.93982L17.1568 7.4851C17.4537 6.80208 17.8464 6.06634 18.5068 5.78003C18.868 5.62332 19.2478 5.69428 19.523 5.96975C19.798 6.24498 19.8689 6.62542 19.7126 6.98688V6.98664ZM18.1676 10.912C17.1723 10.518 16.1283 10.8238 15.2379 11.1749L14.311 11.5595C14.2037 11.4151 14.0757 11.2868 13.9314 11.1796L14.3128 10.2593L14.3157 10.2519C14.6665 9.36092 14.9718 8.31571 14.5784 7.31952C14.2894 6.58772 13.6242 6.13311 12.8428 6.13336C12.0615 6.13336 11.3963 6.58797 11.1073 7.31952C11.013 7.55828 10.9591 7.79999 10.9362 8.04171C10.7491 7.88723 10.5404 7.75441 10.305 7.65215C9.5835 7.33923 8.79229 7.48855 8.23963 8.04171C7.68697 8.59488 7.53803 9.3868 7.85043 10.109C7.95234 10.3445 8.08503 10.5535 8.23963 10.7408C7.99813 10.7637 7.75688 10.8176 7.51809 10.912C6.7872 11.2015 6.33301 11.867 6.33301 12.6491C6.33301 13.4312 6.7872 14.0969 7.51809 14.3862C7.75664 14.4806 7.99813 14.5348 8.23938 14.5577C8.08503 14.7447 7.95234 14.9537 7.85043 15.1892C7.53779 15.9112 7.68697 16.7033 8.23963 17.2565C8.60102 17.6182 9.06457 17.8072 9.54363 17.8072C9.79718 17.8072 10.0552 17.7542 10.3048 17.646C10.5401 17.544 10.7489 17.4112 10.936 17.2565C10.9589 17.4982 11.0128 17.7397 11.1071 17.9787C11.3961 18.7105 12.0613 19.1651 12.8426 19.1648C13.624 19.1648 14.2891 18.7102 14.5781 17.9787C14.6724 17.7399 14.7263 17.4982 14.7492 17.2565C14.9363 17.411 15.1451 17.5438 15.3804 17.646C15.63 17.7542 15.888 17.8072 16.1416 17.8072C16.6209 17.8072 17.0844 17.6182 17.4456 17.2565C17.998 16.7033 18.1472 15.9114 17.8348 15.1892C17.7329 14.9537 17.6002 14.7447 17.4458 14.5577C17.6873 14.5348 17.9286 14.4806 18.1671 14.3862C18.8983 14.0969 19.3525 13.4312 19.3525 12.6491C19.3525 11.867 18.8983 11.2013 18.1671 10.912H18.1676ZM7.84403 13.5615C7.45286 13.4065 7.21924 13.0655 7.21924 12.6493C7.21924 12.2332 7.45286 11.8919 7.84403 11.7372C8.01586 11.6692 8.22215 11.6135 8.50599 11.6135C8.86935 11.6135 9.36023 11.7054 10.068 11.9794C10.0813 11.9853 10.0946 11.991 10.1076 11.9969L11.034 12.3805C11.0209 12.4685 11.014 12.5582 11.014 12.6496C11.014 12.741 11.0209 12.8307 11.034 12.9187L10.115 13.2993L10.1076 13.3025C10.0923 13.3092 10.0771 13.3159 10.0618 13.3228C9.34693 13.6002 8.53282 13.835 7.84378 13.5623L7.84403 13.5615ZM11.373 15.0392L11.37 15.0465C11.3641 15.0618 11.3579 15.0771 11.352 15.0926C11.0426 15.7951 10.6327 16.5375 9.95276 16.8324C9.56675 16.9997 9.16056 16.9241 8.86639 16.6296C8.57221 16.3352 8.49639 15.9286 8.66379 15.5423C8.83144 15.1552 9.17091 14.6866 10.4074 14.1393C10.421 14.1341 10.4345 14.129 10.4478 14.1235L11.3747 13.7389C11.482 13.8833 11.61 14.0117 11.7543 14.1189L11.373 15.0392ZM11.3747 11.5595L10.4552 11.1779L10.4478 11.1749C10.4326 11.1687 10.4171 11.1628 10.4015 11.1569C9.69993 10.8472 8.95822 10.4369 8.66379 9.75639C8.49663 9.37005 8.57221 8.96349 8.86639 8.66903C9.16056 8.37459 9.56675 8.29894 9.95276 8.46626C10.3395 8.63381 10.8075 8.97383 11.354 10.2105C11.3594 10.2243 11.3648 10.2383 11.3702 10.2519L11.7545 11.1796C11.6103 11.287 11.482 11.4151 11.3749 11.5595H11.3747ZM13.7544 17.6524C13.5996 18.044 13.2591 18.2778 12.8431 18.2778C12.4271 18.2778 12.0864 18.044 11.9318 17.6524C11.7769 17.2602 11.6858 16.6888 12.1733 15.4275C12.1792 15.4139 12.1853 15.4001 12.1912 15.3866L12.5745 14.4594C12.6624 14.4724 12.752 14.4793 12.8433 14.4793C12.9347 14.4793 13.0243 14.4724 13.1122 14.4594L13.4925 15.3792L13.4957 15.3866C13.5024 15.4018 13.509 15.4169 13.5156 15.4322C13.7931 16.1477 14.0274 16.9628 13.7549 17.6524H13.7544ZM11.9005 12.6491C11.9005 12.1289 12.3232 11.7059 12.8428 11.7059C13.3625 11.7059 13.7852 12.1289 13.7852 12.6491C13.7852 13.1692 13.3625 13.5923 12.8428 13.5923C12.3232 13.5923 11.9005 13.1692 11.9005 12.6491ZM13.4927 9.9232L13.1134 10.8391C13.0253 10.826 12.9349 10.8189 12.8431 10.8189C12.7513 10.8189 12.6622 10.8258 12.5743 10.8388L12.1939 9.91902L12.191 9.91163C12.1843 9.89635 12.1777 9.88132 12.171 9.86605C11.8938 9.15049 11.6592 8.33541 11.9318 7.64574C12.0866 7.25422 12.4271 7.02039 12.8431 7.02039C13.2591 7.02039 13.5998 7.25422 13.7544 7.64574C13.9115 8.04343 14.0033 8.62469 13.4927 9.9232ZM16.8196 16.6294C16.5254 16.9238 16.1194 16.9997 15.7332 16.8322C15.3467 16.6646 14.8787 16.3249 14.3322 15.0884C14.3268 15.0744 14.3214 15.0603 14.316 15.0465L13.9317 14.1189C14.0759 14.0114 14.2042 13.8833 14.3113 13.7389L15.2308 14.1206L15.2381 14.1235C15.2529 14.1295 15.2682 14.1351 15.2832 14.141C15.9853 14.4508 16.7275 14.8612 17.0224 15.5421C17.1896 15.9284 17.114 16.335 16.8198 16.6294H16.8196ZM17.8419 13.5615C17.45 13.7165 16.8791 13.8077 15.6187 13.3198C15.6052 13.3139 15.5916 13.308 15.5781 13.302L14.6518 12.9184C14.6648 12.8304 14.6717 12.7408 14.6717 12.6493C14.6717 12.5579 14.6648 12.467 14.6515 12.3788L15.5665 11.9989C16.295 11.7118 17.1344 11.457 17.8417 11.7369C18.2328 11.8919 18.4665 12.2329 18.4665 12.6491C18.4665 13.0653 18.2328 13.4065 17.8417 13.5613L17.8419 13.5615Z" fill="#009FFF"/>
<path d="M64.1902 6.36914H56.2887C53.1855 6.36914 50.6699 8.88476 50.6699 11.9879C50.6699 15.0911 53.1855 17.6067 56.2887 17.6067H64.1902C67.2933 17.6067 69.809 15.0911 69.809 11.9879C69.809 8.88476 67.2933 6.36914 64.1902 6.36914Z" fill="#009FFF"/>
<path d="M57.0865 8.70117C57.5023 8.70117 57.8591 8.77422 58.1569 8.92031C58.4547 9.06078 58.6794 9.25743 58.8311 9.51028C58.9828 9.75751 59.0587 10.0356 59.0587 10.3447C59.0587 10.7211 58.966 11.0274 58.7806 11.2633C58.6008 11.4993 58.4153 11.6567 58.2243 11.7353V11.769C58.5221 11.887 58.7525 12.0668 58.9154 12.3084C59.084 12.5444 59.1682 12.8507 59.1682 13.2271C59.1682 13.7778 58.9828 14.2132 58.612 14.5335C58.2468 14.8481 57.7383 15.0055 57.0865 15.0055C56.4403 15.0055 55.9122 14.8397 55.502 14.5082C55.0918 14.1767 54.8867 13.6822 54.8867 13.0248H56.2858C56.2914 13.2721 56.3617 13.4687 56.4965 13.6148C56.6314 13.7553 56.828 13.8255 57.0865 13.8255C57.3056 13.8255 57.4742 13.7609 57.5922 13.6317C57.7158 13.5024 57.7776 13.3311 57.7776 13.1176C57.7776 12.8535 57.6933 12.6624 57.5247 12.5444C57.3562 12.4264 57.0809 12.3674 56.6988 12.3674H56.4291V11.1959H56.6988C56.9853 11.1959 57.2157 11.1482 57.3899 11.0526C57.5697 10.9515 57.6596 10.7745 57.6596 10.5217C57.6596 10.3419 57.6006 10.1986 57.4826 10.0918C57.3702 9.98507 57.2185 9.93169 57.0275 9.93169C56.7859 9.93169 56.6201 10.0019 56.5302 10.1424C56.4403 10.2772 56.3926 10.4149 56.3869 10.5554H54.9879C54.9879 9.9654 55.1761 9.51028 55.5526 9.19001C55.9346 8.86412 56.4459 8.70117 57.0865 8.70117ZM63.5548 12.0219L65.4174 14.9718H63.7823L62.6951 13.2524L61.6921 14.9718H60.0571L61.9197 12.0135L60.0571 9.05516H61.6921L62.7794 10.7829L63.7908 9.05516H65.4258L63.5548 12.0219Z" fill="white"/>
<path d="M86.3146 6.36914H77.8864C74.7832 6.36914 72.2676 8.88476 72.2676 11.9879C72.2676 15.0911 74.7832 17.6067 77.8864 17.6067H86.3146C89.4178 17.6067 91.9334 15.0911 91.9334 11.9879C91.9334 8.88476 89.4178 6.36914 86.3146 6.36914Z" fill="#009FFF"/>
<path d="M76.543 13.8769V12.7138L79.2063 8.9043H80.8161V12.6296H81.5072V13.8769H80.8161V14.9726H79.3748V13.8769H76.543ZM79.476 10.5394L78.1443 12.6296H79.476V10.5394ZM85.7529 12.0227L87.6155 14.9726H85.9805L84.8932 13.2532L83.8903 14.9726H82.2552L84.1178 12.0143L82.2552 9.056H83.8903L84.9775 10.7838L85.9889 9.056H87.624L85.7529 12.0227Z" fill="white"/>
</g>
<defs>
<clipPath id="clip0_16929_250065">
<rect width="85.6867" height="14.5738" fill="white" transform="translate(6.33301 4.71289)"/>
</clipPath>
</defs>
</svg>
